<?xml version="1.0" encoding="UTF-8"?>
<svg id="Layer_2" data-name="Layer 2" xmlns="http://www.w3.org/2000/svg" viewBox="0 0 347.94 585.46">
  <defs>
    <style>
      .cls-1 {
        fill: #852b07;
      }

      .cls-2 {
        fill: #ad2b10;
      }

      .cls-3 {
        fill: none;
        stroke: #780000;
        stroke-miterlimit: 10;
        stroke-width: 5px;
      }

      .cls-4 {
        fill: #8f1b07;
      }
    </style>
  </defs>
  <g>
    <path class="cls-1" d="M118.6,289.95c18.25,22.76,36.97,45.97,55.52,69.59-56.51,69.45-105.89,133.6-143.61,217.39-15.57-42.61-25.89-89.08-28-134.4,2.56-16.17,57.97-81.24,116.09-152.58Z"/>
    <path class="cls-4" d="M241.21,101.87c-40.51-19.71-96.62-20.97-136.13-2.51-27.77,12.96-47.34,35.66-47.56,68.51,0-15.94,0-165.4,116.46-165.37,117.35.03,118.52,146.71,118.53,171.31h0c-.56-33.45-21.79-57.59-51.29-71.94Z"/>
    <path class="cls-1" d="M292.5,173.81c.53,31.52-17.31,71.31-63.92,118.98-19.87-23.52-39.46-46.95-56.98-69.2,45.59-58.88,79.71-107.18,69.61-121.72,29.5,14.35,50.73,38.49,51.29,71.94Z"/>
    <path class="cls-2" d="M105.18,99.58c-5.1,25.21,24.91,71.33,66.42,124.01,17.52,22.25,37.11,45.68,56.98,69.2,44.13,52.27,89.58,104.96,116.8,146.17,1.34,2.02-20.67,91.89-26.92,137.97-36.5-75.08-89.76-147.97-144.34-217.39-18.55-23.62-37.27-46.83-55.52-69.59-3.98-4.96-7.94-9.9-11.87-14.82-35.35-43.41-49.4-79.07-49.21-107.26.22-32.85,19.79-55.55,47.56-68.51l.1.22Z"/>
  </g>
  <g>
    <path class="cls-3" d="M105.18,99.58c-5.1,25.21,24.91,71.33,66.42,124.01,17.52,22.25,37.11,45.68,56.98,69.2,44.13,52.27,89.58,104.96,116.8,146.17,1.34,2.02-20.67,91.89-26.92,137.97-36.5-75.08-89.76-147.97-144.34-217.39-18.55-23.62-37.27-46.83-55.52-69.59-3.98-4.96-7.94-9.9-11.87-14.82-35.35-43.41-49.4-79.07-49.21-107.26.22-32.85,19.79-55.55,47.56-68.51,39.51-18.46,95.62-17.2,136.13,2.51,29.5,14.35,50.73,38.49,51.29,71.94.53,31.52-17.31,71.31-63.92,118.98"/>
    <path class="cls-3" d="M118.6,289.95C60.48,361.29,5.07,426.36,2.51,442.53c2.11,45.32,12.43,91.79,28,134.4,37.72-83.79,87.1-147.94,143.61-217.39"/>
    <path class="cls-3" d="M241.11,101.73c.03.05.06.09.1.14,10.1,14.54-24.02,62.84-69.61,121.72"/>
    <path class="cls-3" d="M292.51,174.37v-.56c0-24.6-1.18-171.28-118.53-171.31-116.46-.03-116.46,149.43-116.46,165.37"/>
  </g>
</svg>