<?xml version="1.0" encoding="UTF-8"?>
<svg id="Layer_1" xmlns="http://www.w3.org/2000/svg" version="1.1" viewBox="0 0 125 125">
  <!-- Generator: Adobe Illustrator 29.8.2, SVG Export Plug-In . SVG Version: 2.1.1 Build 3)  -->
  <defs>
    <style>
      .st0 {
        fill: #ffc7c2;
      }

      .st1 {
        fill: #e2231a;
      }
    </style>
  </defs>
  <path class="st0" d="M96.54,45.16c-2.95-2.33-6.51-7.09-6.51-17.27,0-14.22-10.18-21.04-18.83-24.13-3.86-1.34-7.85-2.25-11.9-2.71-1.81-.23-3.64-.36-5.47-.39-13.4,0-23.56,4.23-31.09,10.81-7.46,6.5-12.11,15.05-15.01,23.32-2.48,7.29-4.04,14.88-4.66,22.57-.26,3.06-.34,5.61-.36,7.42-.17,18.81,5.69,39.54,22.5,49.54,13.23,7.85,30.39,9.35,46.44,9.35,14.83,0,27.63-2.44,36.79-9.22,9.44-7,14.27-18.03,14.27-33.24,0-13.99-4.46-22.43-9.5-27.36-2-1.97-4.32-3.56-6.85-4.72-3.34-1.5-6.83-1.58-9.82-3.95Z"/>
  <path class="st1" d="M74.75,50.02c0,12.24,8.84,12.24,8.84,0,0-7.27-4.42-13.16-4.42-13.16,0,0-4.42,5.89-4.42,13.16ZM68.22,72.15c0,9.32,8.84,9.32,8.84,0,0-5.53-4.42-10.02-4.42-10.02,0,0-4.42,4.49-4.42,10.02ZM35.37,61.27l11.33,11.46,17.8-18.01-11.33-11.46-17.81,18.01Z"/>
  <path class="st1" d="M62.87,43.25l-2.41-2.44-2.36,2.39-4.93-4.98-34.13,34.52,4.93,4.98-5.6,5.65-4.04-4.09-1.62,1.64,14.57,14.74,1.62-1.64-4.05-4.1,5.6-5.66,4.93,4.98,34.13-34.52-4.92-4.98,2.36-2.38-2.41-2.44,19.1-19.32,1.58-4.95-22.34,22.59ZM35.37,85.69l-12.81-12.96,30.62-30.97,12.81,12.96-30.62,30.97Z"/>
</svg>