<?xml version="1.0" encoding="UTF-8"?>
<svg xmlns="http://www.w3.org/2000/svg" viewBox="0 0 484.38 621.24">
  <defs>
    <style>
      .cls-1, .cls-2, .cls-3, .cls-4, .cls-5, .cls-6, .cls-7, .cls-8 {
        stroke-miterlimit: 10;
      }

      .cls-1, .cls-2, .cls-5, .cls-6, .cls-8 {
        stroke-width: 5px;
      }

      .cls-1, .cls-2, .cls-6, .cls-7 {
        fill: none;
      }

      .cls-1, .cls-8 {
        stroke: #8daabc;
      }

      .cls-9 {
        fill: #e2d83e;
      }

      .cls-2, .cls-4, .cls-7 {
        stroke: gray;
      }

      .cls-3 {
        stroke-width: 15px;
      }

      .cls-3, .cls-5 {
        stroke: #ccc;
      }

      .cls-4 {
        fill: #b3b3b3;
      }

      .cls-4, .cls-7 {
        stroke-width: 20px;
      }

      .cls-6 {
        stroke: #666;
      }

      .cls-8 {
        fill: #cbe7da;
      }
    </style>
  </defs>
  <g id="Layer_5" data-name="Layer 5">
    <path class="cls-8" d="M338.9,603.17c-43.68,16.5-100.46-.09-146.9-9.75-59.79-12.43-47.49-38.24-99.59-66.06-44.28-87.67-28.4-119.88-44.28-175.73,39.22-11,78.43-21.99,117.65-32.99,21.17-5.94,42.61-11.92,64.85-13.22,73.18-4.27,137.38,41.75,209.9,51.09-2.72-.35,7.25,61.56,7.03,71.5-.3,13.56-18.25,69.24-27.11,81.32-10.21,13.93-18.24,32.27-32.69,43.1-16.54,12.4-28.69,43.12-48.86,50.74Z"/>
    <path class="cls-1" d="M110.49,508.59c20.51-4.23,69.26,10.75,89.83,14.77s41.03,9.26,62.11,9.9c21.75.65,43.24-3.64,64.43-7.9,12.69-2.55,50.94-22.04,62.53-27.17"/>
    <path class="cls-1" d="M128.28,453.39c37.36-5.42,90.86-10.39,128.33-5.56,37.47,4.83,101.54,9.64,136.59-2.77"/>
    <path class="cls-1" d="M117.48,393.64c49.18-9.75,121.73-25.03,172.16-23.54,19.1.57,95.66,21.69,112.45,29.56"/>
  </g>
  <g id="Layer_4" data-name="Layer 4">
    <g>
      <path class="cls-9" d="M31.59,420.36c-2.7-19.69-8.08-37.88-5.21-57.54-8.77-19.2-13.58-42.59-10.73-63.24C2.98,275.56-.17,249.12,4.64,222.82c4.5-24.61-3.13-48.62,1.31-73.25,1.33-7.37,3.8-15.67,11.13-18.98-1.57-21.3,13.05-38.99,29.63-54.02-1.49-11.09,10.61-24.04,22.16-28.1,10.45-3.66,12.17-12.91,24.29-14.32,14.06-1.65,13.44-12.39,27.31-15.04,4.88-.93,15.83-2.6,20.76-1.9,4.92.69,10.59.63,17.36,2.12,14.9-12.77,31.25-16.79,50.84-11.53,19.67-8.83,46.11-6.42,63.38,5.91,23.79-1.6,49.44,5.4,67.28,19.88,11.09-3.69,25.52-3.04,36.79.15,11.27,3.18,9.76,10.31,19.75,16.05,16.84,9.68,27.47,27.76,27,45.92,24.35,13.14,36.54,39.37,30.67,64.65,9.43,16.28,14.59,36.1,15.2,54.5.78,23.29,11.97,45.84,3.79,67.9,10.85,25.85,11.31,56.48-.39,82.02-7.46,16.29-3.21,36.49-14.25,50.99-1.02,17.41-7.93,33.1-18.11,47.85.66,20.56-8.44,40.6-24.28,55.21-13.89,12.82-22.88,31.43-33.65,46.54-13.19,18.52-30.76,37.66-53.39,45.45-20.08,6.9-45.06,8.06-66.37,5.82-6.86,4.11-19.84,1.22-27.84-.45-11.72-2.42-21.63-11.05-33.65-11.12-16.37-.11-28.79-14.05-41.42-23.56-5.76-4.33-12.2-4.76-18.85-7.84-4.52-2.1-9.07-4.22-12.96-7.19s-7.09-6.91-8.07-11.45c-16.91-11.07-29.81-25.99-36.89-43.87-3.28-8.29-8.2-15.83-12.68-23.59-4.19-7.26-6.46-14.9-12.4-20.75-13.7-13.52-23.92-27.67-26.5-46.45ZM459.47,263.07c-8.63-22.31-12.61-43.95-11.11-67.57-9.36-6.07-18.66-12.58-25.17-21.22s-10.4-18.04-6.88-28.02c-12.49,2.56-18.59-1.35-30.37-5.94-3.68-1.43-17.56-15.07-16.66-18.63-22.94,8.76-54.34,6.14-70.39-11.21-23.93,11.4-53.1,8.22-77.75-1.81-17.43,13.96-46.03,14.7-66.17,4.19-6.51,5.76-17.96,27.4-44.9,13.1-15.03,11.51-24.17,22.86-43.27,18.83,2.87,6.94.67,12.44-2.97,19.06s-13.8,13-21.6,15.03c6.85,7.11,6.19,14.02,6.37,23.5.17,9.48-5.03,20.84-11.62,28.16,6.47,7.42,7.84,17.72,6.02,27.06s-6.8,19.29-11.4,27.8c14.48,13.67,22.09,39.27,12.79,56.3,13.87,13,17.36,39.09,6.68,54.41,13.36,12.32,19.17,36.21,9.24,50.99,15.59,9.28,26.68,28.86,21.95,45.29,9.21,2.46,17.29,8.32,21.99,15.96,3.3,5.36,4.96,13,4.8,20.01-.1,4.45,3.12,8.32,7.5,9.15,11.99,2.27,21.62,9.73,26.43,20.25,1.49,3.27,4.58,5.47,8.16,5.82,12.05,1.17,23.11,7.58,30.17,16.73,1.75,2.26,4.67,3.13,7.42,2.38,3.1-.85,6.95-.37,10.19.47,8.62,2.25,16.59,7.21,23.77,12.96,5.87,4.7,13.7,5.88,20.75,3.26.05-.02.09-.04.14-.05,3.91-1.41,8.21-1.6,12.41-1.72,16.25-.45,32.54.04,48.72,1.46,2.26.2,5.3.45,8.18,1.03,5.29,1.07,10.79-.81,14.04-5.11,9.27-12.22,23.57-23.2,37.95-28.5,1.69-.62,2.98-2,3.43-3.74,4.77-18.15,30.34-42.28,30.4-43.1,1.86-2.3,4.12-29.07,9.59-43.41,3.03-7.93,9-14.44,17.52-17.58-1.39-19.9,4.93-35.86,18.56-51.43-10.1-26.17-7.51-53.92,11.38-75.65-11.69-22.11-11.39-48.18,3.71-68.49Z"/>
      <g>
        <path class="cls-6" d="M66.8,144.78c2.87,6.94.67,12.44-2.97,19.06s-13.8,13-21.6,15.03c6.85,7.11,6.19,14.02,6.37,23.5.17,9.48-5.03,20.84-11.62,28.16,6.47,7.42,7.84,17.72,6.02,27.06s-6.8,19.29-11.4,27.8c14.48,13.67,22.09,39.27,12.79,56.3,13.87,13,17.36,39.09,6.68,54.41,13.36,12.32,19.17,36.21,9.24,50.99,15.59,9.28,26.68,28.86,21.95,45.29,9.21,2.46,17.29,8.32,21.99,15.96,3.3,5.36,4.96,13,4.8,20.01-.1,4.45,3.12,8.32,7.5,9.15,11.99,2.27,21.62,9.73,26.43,20.25,1.49,3.27,4.58,5.47,8.16,5.82,12.05,1.17,23.11,7.58,30.17,16.73,1.75,2.26,4.67,3.13,7.42,2.38,3.1-.85,6.95-.37,10.19.47,8.62,2.25,16.59,7.21,23.77,12.96,5.87,4.7,13.7,5.88,20.75,3.26.05-.02.09-.04.14-.05,3.91-1.41,8.21-1.6,12.41-1.72,16.25-.45,32.54.04,48.72,1.46,2.26.2,5.3.45,8.18,1.03,5.29,1.07,10.79-.81,14.04-5.11,9.27-12.22,23.57-23.2,37.95-28.5,1.69-.62,2.98-2,3.43-3.74,4.77-18.15,30.34-42.28,30.4-43.1,1.86-2.3,4.12-29.07,9.59-43.41,3.03-7.93,9-14.44,17.52-17.58-1.39-19.9,4.93-35.86,18.56-51.43-10.1-26.17-7.51-53.92,11.38-75.65-11.69-22.11-11.39-48.18,3.71-68.49-8.63-22.31-12.61-43.95-11.11-67.57-9.36-6.07-18.66-12.58-25.17-21.22s-10.4-18.04-6.88-28.02c-12.49,2.56-18.59-1.35-30.37-5.94-3.68-1.43-17.56-15.07-16.66-18.63-22.94,8.76-54.34,6.14-70.39-11.21-23.93,11.4-53.1,8.22-77.75-1.81-17.43,13.96-46.03,14.7-66.17,4.19-6.51,5.76-17.96,27.4-44.9,13.1-15.03,11.51-24.17,22.86-43.27,18.83Z"/>
        <path class="cls-2" d="M396.63,49.77c16.84,9.68,27.47,27.76,27,45.92,24.35,13.14,36.54,39.37,30.67,64.65,9.43,16.28,14.59,36.1,15.2,54.5.78,23.29,11.97,45.84,3.79,67.9,10.85,25.85,11.31,56.48-.39,82.02-7.46,16.29-3.21,36.49-14.25,50.99-1.02,17.41-7.93,33.1-18.11,47.85.66,20.56-8.44,40.6-24.28,55.21-13.89,12.82-22.88,31.43-33.65,46.54-13.19,18.52-30.76,37.66-53.39,45.45-20.08,6.9-45.06,8.06-66.37,5.82-6.86,4.11-19.84,1.22-27.84-.45-11.72-2.42-21.63-11.05-33.65-11.12-16.37-.11-28.79-14.05-41.42-23.56-5.76-4.33-12.2-4.76-18.85-7.84-4.52-2.1-9.07-4.22-12.96-7.19s-7.09-6.91-8.07-11.45c-16.91-11.07-29.81-25.99-36.89-43.87-3.28-8.29-8.2-15.83-12.68-23.59-4.19-7.26-6.46-14.9-12.4-20.75-13.7-13.52-23.92-27.67-26.5-46.45-2.7-19.69-8.08-37.88-5.21-57.54-8.77-19.2-13.58-42.59-10.73-63.24C2.98,275.56-.17,249.12,4.64,222.82c4.5-24.61-3.13-48.62,1.31-73.25,1.33-7.37,3.8-15.67,11.13-18.98-1.57-21.3,13.05-38.99,29.63-54.02-1.49-11.09,10.61-24.04,22.16-28.1,10.45-3.66,12.17-12.91,24.29-14.32,14.06-1.65,13.44-12.39,27.31-15.04,4.88-.93,15.83-2.6,20.76-1.9,4.92.69,10.59.63,17.36,2.12,14.9-12.77,31.25-16.79,50.84-11.53,19.67-8.83,46.11-6.42,63.38,5.91,23.79-1.6,49.44,5.4,67.28,19.88,11.09-3.69,25.52-3.04,36.79.15,11.27,3.18,9.76,10.31,19.75,16.05Z"/>
      </g>
    </g>
  </g>
  <g id="Layer_3" data-name="Layer 3">
    <path class="cls-4" d="M233.3,345.32c-8.32,12.38-12.56,12.67-50.67,19.06-33.76,5.66-102.21,12.14-130.1-11.96-24.33-21.35-24.32-59.02-22.38-90.25.69-45.43,14.5-64.27,53.6-80.03,73.36-30.1,153.71-32.97,232.05-29.3,43,2.02,88.09,6.67,123.83,32.75,30.62,22.21,36.54,47.11,34.34,85.53-.7,22.1-2.26,46.47-16.65,62.09-11.33,12.3-39.39,22.27-55.23,24.78-37.04,5.86-31.41,4.27-68.26,0-15.55-1.8-22.98-2.89-30.49-20.3-4.69-10.86-20.93-36.28-32.39-35.42-17.34,1.29-28.24,29.26-37.64,43.05Z"/>
    <g id="Layer_7" data-name="Layer 7">
      <line class="cls-3" x1="428.4" y1="178.26" x2="346.69" y2="359.57"/>
      <line class="cls-5" x1="382.9" y1="160.76" x2="301.24" y2="333.36"/>
      <line class="cls-3" x1="218.38" y1="153.1" x2="127.37" y2="369.62"/>
      <line class="cls-5" x1="170.56" y1="159.18" x2="88" y2="366.97"/>
    </g>
    <path class="cls-7" d="M233.3,345.32c-8.32,12.38-12.56,12.67-50.67,19.06-33.76,5.66-102.21,12.14-130.1-11.96-24.33-21.35-24.32-59.02-22.38-90.25.69-45.43,14.5-64.27,53.6-80.03,73.36-30.1,153.71-32.97,232.05-29.3,43,2.02,88.09,6.67,123.83,32.75,30.62,22.21,36.54,47.11,34.34,85.53-.7,22.1-2.26,46.47-16.65,62.09-11.33,12.3-39.39,22.27-55.23,24.78-37.04,5.86-31.41,4.27-68.26,0-15.55-1.8-22.98-2.89-30.49-20.3-4.69-10.86-20.93-36.28-32.39-35.42-17.34,1.29-28.24,29.26-37.64,43.05Z"/>
  </g>
</svg>