<?xml version="1.0" encoding="UTF-8"?>
<svg id="Layer_1" xmlns="http://www.w3.org/2000/svg" version="1.1" viewBox="0 0 125 125">
  <!-- Generator: Adobe Illustrator 29.8.2, SVG Export Plug-In . SVG Version: 2.1.1 Build 3)  -->
  <defs>
    <style>
      .st0 {
        fill: #ffc7c2;
      }

      .st1 {
        fill: #008c61;
      }
    </style>
  </defs>
  <path class="st0" d="M96.54,45.16c-2.95-2.33-6.51-7.09-6.51-17.27,0-14.22-10.18-21.04-18.83-24.13-3.86-1.34-7.85-2.25-11.9-2.71-1.81-.23-3.64-.36-5.47-.39-13.4,0-23.56,4.23-31.09,10.81-7.46,6.5-12.11,15.05-15.01,23.32-2.48,7.29-4.04,14.88-4.66,22.57-.26,3.06-.34,5.61-.36,7.42-.17,18.81,5.69,39.54,22.5,49.54,13.23,7.85,30.39,9.35,46.44,9.35,14.83,0,27.63-2.44,36.79-9.22,9.44-7,14.27-18.03,14.27-33.24,0-13.99-4.46-22.43-9.5-27.36-2-1.97-4.32-3.56-6.85-4.72-3.34-1.5-6.83-1.58-9.82-3.95Z"/>
  <path class="st1" d="M64.35,56.34c-1.91-.18-3.83-.48-5.74-.51-4.98-.13-9.86.82-14.77,1.58-1.76.27-2.6,1.04-3.39,2.57-2.71,5.2-5.66,10.28-8.52,15.39-.18.35-.42.79-.37,1.14.27,1.61.66,3.19,1.03,4.93.48-.37.84-.64,1.21-.9,2.05-1.52,4.6-1.21,5.88.73.93,1.39.82,2.97-.31,4.2-2.36,2.57-4.75,5.13-7.15,7.68-1.15,1.23-3.12,1.45-4.62.57-1.41-.82-2.07-2.46-1.56-4.12.22-.71.59-1.41,1.04-2.02.84-1.12,1.81-2.14,2.69-3.24.22-.27.38-.75.33-1.08-.22-1.21-.53-2.4-.84-3.59-.05-.22-.27-.49-.49-.59-.82-.33-1.74-.51-2.51-.93-1.65-.9-3.23-1.92-4.84-2.9-.46-.27-.92-.51-1.41-.71-1.25-.51-1.58-1.06-1.08-2.31.57-1.41,1.21-2.8,1.89-4.16,2.73-5.5,5.75-10.83,9.16-15.94.57-.84,1.23-1.65,1.94-2.4,1.14-1.21,2.09-1.34,3.41-.31,1.78,1.37,3.5,2.86,5.15,4.4.81.75,1.48,1.1,2.69.86,4.8-.97,9.66-1.76,14.57-1.78,4.12-.02,8.21.42,11.84,2.75.9.59,1.81.2,2.46-.62,2-2.57,4.01-5.13,6.12-7.62.84-1.01,1.58-.97,2.58-.11,5.79,4.98,11.56,9.97,17.34,14.95.81.7.84,1.45.07,2.29-1.5,1.65-3.02,3.3-4.56,4.91-.73.77-1.34,1.47-1.52,2.64-.42,2.82-1.23,5.55-3.13,7.9.55.44.97.9,1.48,1.21,2.09,1.3,2.4,3.24,1.89,5.39-.71,3.01-2.62,4.93-5.61,5.72-.55.15-.73.38-.82.99-.49,3.37-1.85,6.21-5.15,7.75-.29.13-.49.66-.53,1.03-.15,1.81-.55,3.54-1.76,4.98-1.04,1.25-2.4,2.02-4.03,2.09-.79.04-1.03.37-1.21,1.04-.81,3.04-4.16,5.64-7.29,5.5-1.03-.05-2.16-.48-3.01-1.06-3.32-2.33-6.52-4.78-9.79-7.2-.07-.05-.15-.09-.31-.18-.64.7-1.26,1.43-1.94,2.11-1.91,1.92-4.93,1.41-6.1-1.03-.55-1.14-.53-2.24.38-3.26,2.27-2.58,4.56-5.15,6.71-7.83,1.37-1.7,3.72-1.5,4.89-.6,1.5,1.14,1.98,3.39.9,4.97-.62.92-1.45,1.69-2.18,2.53-.22.26-.46.51-.75.84.95.75,1.81,1.48,2.73,2.16,2.4,1.74,4.82,3.45,7.24,5.19.77.55,1.56.62,2.42.27,1.61-.62,2.97-1.52,3.5-3.32.15-.53.07-.92-.33-1.25-3.08-2.49-6.16-4.97-9.25-7.44-.66-.51-1.34-.97-1.26-1.96.07-.84.62-1.36,1.43-1.12.71.2,1.45.53,2.03.99,2.62,2.09,5.19,4.23,7.77,6.36.26.2.48.42.73.62,1.98,1.58,4.65.68,5.31-1.78.05-.22.11-.46.15-.68.31-1.41.11-2.53-1.21-3.5-2.91-2.14-5.7-4.43-8.5-6.71-.4-.33-.86-.73-.99-1.19-.13-.46-.05-1.19.26-1.5.29-.29.99-.29,1.5-.27.31.02.6.33.88.55,2.93,2.35,5.86,4.71,8.8,7.06,1.5,1.21,2.13,1.15,3.35-.35,1.03-1.25,1.78-2.64,1.8-4.29,0-.44-.24-.99-.57-1.28-2.57-2.2-5.17-4.34-7.73-6.54-.51-.42-.97-.93-1.34-1.48-.37-.53-.27-1.23.26-1.58.4-.26,1.08-.4,1.52-.24.64.24,1.19.73,1.72,1.19,2.35,2,4.69,4.01,6.98,6.07.84.75,1.69.97,2.62.38.79-.49,1.63-.99,2.2-1.69,1.37-1.65,1.15-3.19-.44-4.58-6.45-5.66-12.88-11.33-19.35-16.93-.38-.33-1.06-.53-1.58-.46-2.82.37-5.64.77-8.43,1.26-.9.16-1.76.62-2.64.97-2.62,1.06-5.02.59-7.22-1.03-1.48-1.08-1.65-2.53-.33-3.83,1.23-1.21,2.73-2.14,3.98-3.34,1.67-1.59,3.67-2.18,5.9-2.35,1.92-.15,3.83-.49,5.75-.75-.02-.05-.02-.15-.02-.26h0ZM33.97,51.72c-4.87,6.51-8.45,13.49-11.95,20.54,2.18,1.26,4.22,2.46,6.32,3.68,3.26-5.94,6.47-11.77,9.66-17.59.33-.6,1.01-1.3.9-1.83-.11-.59-.93-1.04-1.47-1.54-1.06-1.04-2.18-2.07-3.46-3.26ZM95.18,63.47c-.62-.51-1.17-.95-1.69-1.41-2.27-2.03-4.51-4.11-6.84-6.1-2.11-1.81-4.31-3.56-6.47-5.3-.2-.16-.73-.24-.84-.13-1.47,1.7-2.9,3.45-4.38,5.22,5.19,4.29,10.32,8.54,15.5,12.83,1.59-1.7,3.13-3.37,4.71-5.11h.01Z"/>
  <path class="st1" d="M48.87,90.9c1.92,0,3.5,1.39,3.54,3.26.02.6-.22,1.36-.6,1.83-2.71,3.24-5.48,6.43-8.23,9.64-1.58,1.83-3.52,2.14-5.17.86-1.74-1.37-2.03-3.7-.53-5.53,1.92-2.33,3.98-4.54,5.97-6.82.55-.62,1.08-1.25,1.65-1.83,1.04-1.06,1.91-1.41,3.37-1.41Z"/>
  <path class="st1" d="M35.16,101.53c-2.99-.2-4.75-3.23-3.24-5.88.86-1.54,2.07-2.91,3.24-4.25,1.5-1.72,3.1-3.37,4.67-5.04,1.04-1.1,3.06-1.41,4.4-.7,1.37.73,2.2,2.53,1.78,4.05-.11.38-.33.75-.6,1.06-2.91,3.34-5.83,6.67-8.78,9.97-.37.38-.97.53-1.47.79Z"/>
  <path class="st1" d="M75.98,54.36c1.93,0,1.93-3,0-3s-1.93,3,0,3h0Z"/>
  <path class="st1" d="M95.12,62.51c-1.36-.2-1.48-1.12-2.28-2.06-.69-.81-1.68-1.35-2.48-2.03-1.77-1.5-3.32-3.22-4.97-4.84-.8-.79-1.63-1.55-2.51-2.26s-1.91-1.7-3.03-1.74c-1.28-.05-2.12,1.1-2.87,1.98-.9,1.05-1.71,2.16-2.44,3.33s.48,2.44,1.69,2.2c1.44-.28,2.88-.82,4.1-1.65s2.07-2.45.88-3.72-2.94-.33-3.46,1.08-1,2.64-1.89,3.87c-.79,1.1.51,2.53,1.69,2.2,1.86-.51,3.52-1.46,4.92-2.79s-.72-3.45-2.12-2.12c-1.03.98-2.23,1.64-3.6,2.02l1.69,2.2c.53-.74.99-1.52,1.36-2.35.18-.41.36-.83.51-1.25.09-.25.14-.73.33-.88l-.66.39.21-.05h-.8l.19.05-.66-.39-.17-.33.2-.76c-.21.45-1.06.78-1.51.98-.65.28-1.33.46-2.02.59l1.69,2.2c.48-.76.98-1.5,1.54-2.2.45-.56,1.04-1.49,1.69-1.82l-.76.2c.1,0,.6.43.74.54.31.23.61.46.9.71.67.56,1.3,1.15,1.93,1.76,1.22,1.19,2.37,2.43,3.6,3.6.59.57,1.2,1.12,1.84,1.64.59.49,1.31.89,1.85,1.43.6.6.85,1.45,1.53,2.03s1.48.97,2.36,1.1c.8.12,1.61-.2,1.85-1.05.19-.71-.24-1.73-1.05-1.85h0Z"/>
  <path class="st1" d="M81.31,57.15c2.05.75,3.61,2.43,5.22,3.84.89.78,1.81,1.54,2.82,2.16.5.31,1.04.55,1.57.8.26.13.54.25.78.42.09.04.16.09.21.16.28.36.32.15.11-.61l.54-.54c-.25.17-.2.17.15,0-.11-.05-.22-.1-.32-.16-.31-.15-.61-.31-.91-.47-.53-.28-1.05-.58-1.56-.89-1.1-.67-2.17-1.39-3.18-2.18s-1.94-1.64-2.86-2.52c-1.01-.96-2.03-1.65-3.44-1.8-.76-.08-1.57.75-1.5,1.5.11,1.26.86,1.89,1.85,2.58s1.9,1.32,2.86,1.98l.36-2.74c-1,.25-2.01.55-3.02.74h.8c.36.37.43.4.22.09-.08-.13-.17-.26-.26-.38-.21-.29-.43-.57-.68-.83-.45-.48-.99-.89-1.55-1.25l-1.51,2.59c2.47,1.28,4.94,2.56,7.32,3.99,1.17.7,2.32,1.44,3.43,2.24s2.18,1.6,3.65,1.73l-.76-2.8c-.44.22-.83.5-1.24.77-.26.18-.7.55-1.04.46.21.05-.16-.23-.15-.22-.17-.17-.32-.37-.48-.55-.33-.38-.68-.74-1.04-1.09-1.47-1.42-3.17-2.62-5-3.54l-.76,2.8c2.62-.03,5.18.37,7.67,1.18,1.84.6,2.63-2.3.8-2.89-2.73-.89-5.6-1.32-8.47-1.29-1.42.01-2.13,2.11-.76,2.8,2.07,1.04,3.89,2.42,5.43,4.16.92,1.05,1.9,1.83,3.39,1.59,1.24-.2,2.07-1.06,3.16-1.59.59-.29.86-1.09.69-1.69-.18-.67-.78-1.04-1.45-1.1-.44-.04-.85-.38-1.2-.63-.5-.36-1-.73-1.5-1.08-1.09-.75-2.2-1.45-3.34-2.12-2.24-1.32-4.54-2.52-6.85-3.71-1.72-.89-3.14,1.55-1.51,2.59.47.3.91.68,1.24,1.13s.55,1,1.08,1.32c.72.43,1.5.24,2.26.05s1.48-.37,2.23-.55c1.34-.33,1.37-2.04.36-2.74-.65-.45-1.29-.9-1.94-1.35-.3-.21-.61-.42-.91-.63-.1-.07-.23-.2-.35-.24-.27-.1-.08-.48-.01.26l-1.5,1.5c.79.08,1.59,1.19,2.13,1.69.91.84,1.88,1.63,2.87,2.38,1.89,1.43,4.03,2.91,6.27,3.76,1.29.49,2.88.01,3.23-1.45.32-1.34-.85-2.47-1.9-3.08-.89-.52-1.85-.88-2.71-1.47-.8-.55-1.52-1.2-2.24-1.85-1.82-1.64-3.63-3.24-5.97-4.09-.76-.28-1.64.31-1.85,1.05-.23.84.28,1.57,1.05,1.85h0Z"/>
  <path class="st1" d="M79.59,67.54c1.93,0,1.93-3,0-3s-1.93,3,0,3h0Z"/>
  <path class="st1" d="M78.69,64.29c1.93,0,1.93-3,0-3s-1.93,3,0,3h0Z"/>
  <path class="st1" d="M136.27,40.82c1.93,0,1.93-3,0-3s-1.93,3,0,3h0Z"/>
</svg>