<?xml version="1.0" encoding="UTF-8"?>
<svg id="Layer_1" xmlns="http://www.w3.org/2000/svg" version="1.1" viewBox="0 0 270 260">
  <!-- Generator: Adobe Illustrator 29.8.2, SVG Export Plug-In . SVG Version: 2.1.1 Build 3)  -->
  <defs>
    <style>
      .st0 {
        fill: #ffc7c2;
      }
    </style>
  </defs>
  <path class="st0" d="M134.86,4.79c36.71,0,70.65,20.55,95.67,53.92,22.82,30.46,36.42,69.46,36.42,105.88,0,19.42-3.87,35.9-11.93,49.47-7.96,13.39-19.54,23.22-34.1,29.81-21.04,9.48-44.05,11.89-86.05,11.89s-64.98-2.42-86.04-11.89c-13.37-6.04-24.21-14.79-32.04-26.55l-2.07-3.26c-8.06-13.58-11.93-30.04-11.93-49.47,0-36.42,13.6-75.42,36.42-105.88C64.2,25.34,98.14,4.79,134.86,4.79Z"/>
</svg>