<?xml version="1.0" encoding="UTF-8"?>
<svg id="Layer_1" data-name="Layer 1" xmlns="http://www.w3.org/2000/svg" viewBox="0 0 270.76 306.79">
  <defs>
    <style>
      .cls-1 {
        fill: #ad2b10;
      }

      .cls-2 {
        fill: #780000;
      }
    </style>
  </defs>
  <g>
    <path class="cls-2" d="M124.04,53.68c-11.4,0-20.68-9.28-20.68-20.68s9.28-20.68,20.68-20.68,20.68,9.28,20.68,20.68-9.28,20.68-20.68,20.68Z"/>
    <path class="cls-1" d="M124.04,14.82c10.03,0,18.18,8.16,18.18,18.18s-8.16,18.18-18.18,18.18-18.18-8.16-18.18-18.18,8.16-18.18,18.18-18.18M124.04,9.82c-12.8,0-23.18,10.38-23.18,23.18s10.38,23.18,23.18,23.18,23.18-10.38,23.18-23.18-10.38-23.18-23.18-23.18h0Z"/>
  </g>
  <path class="cls-1" d="M124.04,5c15.44,0,28,12.56,28,28s-12.56,28-28,28-28-12.56-28-28,12.56-28,28-28M124.04,0c-18.23,0-33,14.78-33,33s14.78,33,33,33,33-14.78,33-33S142.26,0,124.04,0h0Z"/>
  <g>
    <path class="cls-2" d="M27.23,116.95c-13.64,0-24.73-11.1-24.73-24.73s11.1-24.73,24.73-24.73,24.73,11.1,24.73,24.73-11.1,24.73-24.73,24.73Z"/>
    <path class="cls-1" d="M27.23,69.99c12.26,0,22.23,9.97,22.23,22.23s-9.97,22.23-22.23,22.23-22.23-9.97-22.23-22.23,9.97-22.23,22.23-22.23M27.23,64.99c-15.04,0-27.23,12.19-27.23,27.23s12.19,27.23,27.23,27.23,27.23-12.19,27.23-27.23-12.19-27.23-27.23-27.23h0Z"/>
  </g>
  <g>
    <path class="cls-2" d="M49.55,242.59c-13.64,0-24.73-11.1-24.73-24.73s11.1-24.73,24.73-24.73,24.73,11.1,24.73,24.73-11.1,24.73-24.73,24.73Z"/>
    <path class="cls-1" d="M49.55,195.62c12.26,0,22.23,9.97,22.23,22.23s-9.97,22.23-22.23,22.23-22.23-9.97-22.23-22.23,9.97-22.23,22.23-22.23M49.55,190.62c-15.04,0-27.23,12.19-27.23,27.23s12.19,27.23,27.23,27.23,27.23-12.19,27.23-27.23-12.19-27.23-27.23-27.23h0Z"/>
  </g>
  <path class="cls-1" d="M49.55,184.09c18.62,0,33.77,15.15,33.77,33.77s-15.15,33.77-33.77,33.77-33.77-15.15-33.77-33.77,15.15-33.77,33.77-33.77M49.55,179.09c-21.41,0-38.77,17.36-38.77,38.77s17.36,38.77,38.77,38.77,38.77-17.36,38.77-38.77-17.36-38.77-38.77-38.77h0Z"/>
  <g>
    <path class="cls-2" d="M145.29,295.52c-10.03,0-18.2-8.16-18.2-18.2s8.16-18.2,18.2-18.2,18.2,8.16,18.2,18.2-8.16,18.2-18.2,18.2Z"/>
    <path class="cls-1" d="M145.29,261.63c8.66,0,15.7,7.04,15.7,15.7s-7.04,15.7-15.7,15.7-15.7-7.04-15.7-15.7,7.04-15.7,15.7-15.7M145.29,256.63c-11.43,0-20.7,9.27-20.7,20.7s9.27,20.7,20.7,20.7,20.7-9.27,20.7-20.7-9.27-20.7-20.7-20.7h0Z"/>
  </g>
  <path class="cls-1" d="M145.29,252.86c13.49,0,24.47,10.97,24.47,24.47s-10.97,24.47-24.47,24.47-24.47-10.97-24.47-24.47,10.97-24.47,24.47-24.47M145.29,247.86c-16.27,0-29.46,13.19-29.46,29.47s13.19,29.47,29.46,29.47,29.47-13.19,29.47-29.47-13.19-29.47-29.47-29.47h0Z"/>
  <g>
    <path class="cls-2" d="M231.99,144.19c-13.64,0-24.73-11.1-24.73-24.73s11.1-24.73,24.73-24.73,24.73,11.1,24.73,24.73-11.1,24.73-24.73,24.73Z"/>
    <path class="cls-1" d="M231.99,97.22c12.26,0,22.23,9.97,22.23,22.23s-9.97,22.23-22.23,22.23-22.23-9.97-22.23-22.23,9.97-22.23,22.23-22.23M231.99,92.22c-15.04,0-27.23,12.19-27.23,27.23s12.19,27.23,27.23,27.23,27.23-12.19,27.23-27.23-12.19-27.23-27.23-27.23h0Z"/>
  </g>
  <path class="cls-1" d="M231.99,85.68c18.62,0,33.77,15.15,33.77,33.77s-15.15,33.77-33.77,33.77-33.77-15.15-33.77-33.77,15.15-33.77,33.77-33.77M231.99,80.68c-21.41,0-38.77,17.36-38.77,38.77s17.36,38.77,38.77,38.77,38.77-17.36,38.77-38.77-17.36-38.77-38.77-38.77h0Z"/>
  <g>
    <path class="cls-2" d="M118.77,164.88c-10.03,0-18.2-8.16-18.2-18.2s8.16-18.2,18.2-18.2,18.2,8.16,18.2,18.2-8.16,18.2-18.2,18.2Z"/>
    <path class="cls-1" d="M118.77,130.99c8.66,0,15.7,7.04,15.7,15.7s-7.04,15.7-15.7,15.7-15.7-7.04-15.7-15.7,7.04-15.7,15.7-15.7M118.77,125.99c-11.43,0-20.7,9.27-20.7,20.7s9.27,20.7,20.7,20.7,20.7-9.27,20.7-20.7-9.27-20.7-20.7-20.7h0Z"/>
  </g>
</svg>