<?xml version="1.0" encoding="UTF-8"?>
<svg id="Layer_1" xmlns="http://www.w3.org/2000/svg" version="1.1" viewBox="0 0 125 125">
  <!-- Generator: Adobe Illustrator 29.8.2, SVG Export Plug-In . SVG Version: 2.1.1 Build 3)  -->
  <defs>
    <style>
      .st0 {
        fill: #ffc7c2;
      }

      .st1 {
        fill: #008c61;
      }
    </style>
  </defs>
  <path class="st0" d="M96.54,45.16c-2.95-2.33-6.51-7.09-6.51-17.27,0-14.22-10.18-21.04-18.83-24.13-3.86-1.34-7.85-2.25-11.9-2.71-1.81-.23-3.64-.36-5.47-.39-13.4,0-23.56,4.23-31.09,10.81-7.46,6.5-12.11,15.05-15.01,23.32-2.48,7.29-4.04,14.88-4.66,22.57-.26,3.06-.34,5.61-.36,7.42-.17,18.81,5.69,39.54,22.5,49.54,13.23,7.85,30.39,9.35,46.44,9.35,14.83,0,27.63-2.44,36.79-9.22,9.44-7,14.27-18.03,14.27-33.24,0-13.99-4.46-22.43-9.5-27.36-2-1.97-4.32-3.56-6.85-4.72-3.34-1.5-6.83-1.58-9.82-3.95Z"/>
  <path class="st1" d="M84.39,40.29c-4,.99-8.21,1.11-11.39,1.01-10.03-.32-19.36-2.62-26.55,3.12-5.66,4.52-3.99,13.27-5.66,14.94l-.02.02-.02.02c-1.67,1.67-10.43,0-14.94,5.66-5.73,7.19-2.83,15.69-3.23,25.19-.13,3.18-.39,8.59-1.38,12.58-.59,2.38.91,4.19,3.06,3.01,7.71-4.25,12.47-13.51,16.05-21.73,1.36-3.11,3.5-3.41,6.39-4.71,3.09-1.39,5.55-2.21,8.7-5.36l.02-.02.02-.02c3.15-3.15,3.97-5.61,5.36-8.7,1.29-2.89,1.6-5.03,4.71-6.39,8.22-3.59,17.48-8.35,21.73-16.06,1.19-2.14-.47-3.16-2.84-2.58ZM88.21,49.67c-.24-1.45-1.98-1.78-3.05-.7-5.17,5.16-9.7,10.24-12.99,17.08-2.66,5.55-3.88,10.36-8.2,14.89-5.11,5.36-12.21,8.48-17.78,11.1-7.74,3.62-12.19,8.07-16.99,12.96-1.12,1.14-.68,2.96.87,3.07,3.78.27,9.81.67,16.79,1.02,10.85.55,21.67-1.25,31.54-10.49,10.31-9.65,10.31-19.41,10.69-29.95.26-6.98-.31-15.57-.88-18.99Z"/>
</svg>