<svg width="150" height="150" viewBox="0 0 150 150" fill="none" xmlns="http://www.w3.org/2000/svg">
<mask id="mask0_339_285" style="mask-type:luminance" maskUnits="userSpaceOnUse" x="18" y="6" width="114" height="138">
<path d="M40.625 21.875C40.625 19.3886 41.6127 17.004 43.3709 15.2459C45.129 13.4877 47.5136 12.5 50 12.5H100C101.231 12.5 102.45 12.7425 103.588 13.2136C104.725 13.6848 105.759 14.3753 106.629 15.2459C107.5 16.1164 108.19 17.1499 108.661 18.2873C109.132 19.4248 109.375 20.6439 109.375 21.875C109.375 23.1061 109.132 24.3252 108.661 25.4627C108.19 26.6001 107.5 27.6336 106.629 28.5041C105.759 29.3747 104.725 30.0652 103.588 30.5364C102.45 31.0075 101.231 31.25 100 31.25H50C47.5136 31.25 45.129 30.2623 43.3709 28.5041C41.6127 26.746 40.625 24.3614 40.625 21.875ZM40.9375 53.5C41.8158 52.4078 42.9278 51.5264 44.1916 50.9207C45.4555 50.315 46.8391 50.0004 48.2406 50H101.753C103.156 49.9995 104.541 50.3136 105.806 50.9194C107.071 51.5251 108.184 52.407 109.063 53.5L122.931 70.7594C124.269 72.4251 124.998 74.4979 124.997 76.6344V128.125C124.997 130.611 124.009 132.996 122.251 134.754C120.493 136.512 118.108 137.5 115.622 137.5H34.375C31.8886 137.5 29.504 136.512 27.7459 134.754C25.9877 132.996 25 130.611 25 128.125V76.6344C24.999 74.4979 25.7278 72.4251 27.0656 70.7594L40.9375 53.5Z" fill="white" stroke="white" stroke-width="12.5" stroke-linejoin="round"/>
<path d="M56.25 93.75H93.75M75 75V112.5" stroke="black" stroke-width="12.5" stroke-linecap="round" stroke-linejoin="round"/>
</mask>
<g mask="url(#mask0_339_285)">
<path d="M0 0H150V150H0V0Z" fill="#E2231A"/>
</g>
</svg>
