<svg width="68" height="68" viewBox="0 0 68 68" fill="none" xmlns="http://www.w3.org/2000/svg">
<path d="M34 22.6667H11.3334C9.83046 22.6667 8.38912 23.2637 7.32641 24.3264C6.26371 25.3891 5.66669 26.8305 5.66669 28.3334V39.6667C5.66669 41.1696 6.26371 42.6109 7.32641 43.6736C8.38912 44.7364 9.83046 45.3334 11.3334 45.3334H14.1667V56.6667C14.1667 57.4182 14.4652 58.1388 14.9966 58.6702C15.5279 59.2015 16.2486 59.5 17 59.5H22.6667C23.4181 59.5 24.1388 59.2015 24.6702 58.6702C25.2015 58.1388 25.5 57.4182 25.5 56.6667V45.3334H34L48.1667 56.6667V11.3334L34 22.6667ZM60.9167 34C60.9167 38.845 58.1967 43.2367 53.8334 45.3334V22.6667C58.1684 24.7917 60.9167 29.1834 60.9167 34Z" fill="#727272"/>
</svg>
