<svg width="78" height="78" viewBox="0 0 78 78" fill="none" xmlns="http://www.w3.org/2000/svg">
<path d="M24.375 6.5C26.0989 6.5 27.7522 7.18482 28.9712 8.40381C30.1902 9.62279 30.875 11.2761 30.875 13C30.875 14.7239 30.1902 16.3772 28.9712 17.5962C27.7522 18.8152 26.0989 19.5 24.375 19.5C22.6511 19.5 20.9978 18.8152 19.7788 17.5962C18.5598 16.3772 17.875 14.7239 17.875 13C17.875 11.2761 18.5598 9.62279 19.7788 8.40381C20.9978 7.18482 22.6511 6.5 24.375 6.5ZM19.5 22.75H29.25C30.9739 22.75 32.6272 23.4348 33.8462 24.6538C35.0652 25.8728 35.75 27.5261 35.75 29.25V47.125H30.875V71.5H17.875V47.125H13V29.25C13 27.5261 13.6848 25.8728 14.9038 24.6538C16.1228 23.4348 17.7761 22.75 19.5 22.75ZM53.625 6.5C55.3489 6.5 57.0022 7.18482 58.2212 8.40381C59.4402 9.62279 60.125 11.2761 60.125 13C60.125 14.7239 59.4402 16.3772 58.2212 17.5962C57.0022 18.8152 55.3489 19.5 53.625 19.5C51.9011 19.5 50.2478 18.8152 49.0288 17.5962C47.8098 16.3772 47.125 14.7239 47.125 13C47.125 11.2761 47.8098 9.62279 49.0288 8.40381C50.2478 7.18482 51.9011 6.5 53.625 6.5ZM48.75 22.75H58.5C60.2239 22.75 61.8772 23.4348 63.0962 24.6538C64.3152 25.8728 65 27.5261 65 29.25V47.125H60.125V71.5H47.125V47.125H42.25V29.25C42.25 27.5261 42.9348 25.8728 44.1538 24.6538C45.3728 23.4348 47.0261 22.75 48.75 22.75Z" fill="#727272"/>
</svg>
