<?xml version="1.0" encoding="UTF-8"?>
<svg id="Layer_1" xmlns="http://www.w3.org/2000/svg" version="1.1" viewBox="0 0 125 125">
  <!-- Generator: Adobe Illustrator 29.8.2, SVG Export Plug-In . SVG Version: 2.1.1 Build 3)  -->
  <defs>
    <style>
      .st0 {
        fill: #ffc7c2;
      }

      .st1 {
        fill: #e2231a;
      }
    </style>
  </defs>
  <path class="st0" d="M96.54,45.16c-2.95-2.33-6.51-7.09-6.51-17.27,0-14.22-10.18-21.04-18.83-24.13-3.86-1.34-7.85-2.25-11.9-2.71-1.81-.23-3.64-.36-5.47-.39-13.4,0-23.56,4.23-31.09,10.81-7.46,6.5-12.11,15.05-15.01,23.32-2.48,7.29-4.04,14.88-4.66,22.57-.26,3.06-.34,5.61-.36,7.42-.17,18.81,5.69,39.54,22.5,49.54,13.23,7.85,30.39,9.35,46.44,9.35,14.83,0,27.63-2.44,36.79-9.22,9.44-7,14.27-18.03,14.27-33.24,0-13.99-4.46-22.43-9.5-27.36-2-1.97-4.32-3.56-6.85-4.72-3.34-1.5-6.83-1.58-9.82-3.95Z"/>
  <path class="st1" d="M54.15,7.66c3.32,0,6.49,1.32,8.84,3.66,2.34,2.34,3.66,5.52,3.66,8.84s-1.32,6.49-3.66,8.84-5.52,3.66-8.84,3.66-6.49-1.32-8.84-3.66-3.66-5.52-3.66-8.84,1.32-6.49,3.66-8.84c2.34-2.34,5.52-3.66,8.84-3.66ZM87.48,74.32l-8.33-22.67c-1.46-4.12-2.75-7.71-8.33-10.67-5.75-2.92-9.92-4.17-16.67-4.17s-10.92,1.25-16.67,4.17c-5.58,2.96-6.88,6.54-8.33,10.67l-8.33,22.67c-1.33,5.62,9.83,10.17,17.12,13.29v-9.12c0-3.96,3.58-6.75,10.75-8.46.67-.17,1.29-.25,1.79-.33-2.25-3.42-3.17-6.46-3.25-6.71l7.38-2.5c.04.08,2.17,6.62,7.21,9.92.88.29,1.75.62,2.58,1,3.21,1.42,5.12,3.25,5.75,5.46-5.58,2.21-10.92,3.33-16,3.33l-4.17-.42v10.96l4.17.25c5.71,0,11.12-1.17,16.21-3.38,7.29-3.12,18.17-8.58,17.12-13.29ZM68.73,70.16c-1.66,0-3.25-.66-4.42-1.83-1.17-1.17-1.83-2.76-1.83-4.42s.66-3.25,1.83-4.42c1.17-1.17,2.76-1.83,4.42-1.83s3.25.66,4.42,1.83c1.17,1.17,1.83,2.76,1.83,4.42s-.66,3.25-1.83,4.42-2.76,1.83-4.42,1.83Z"/>
</svg>