<svg width="125" height="125" viewBox="0 0 125 125" fill="none" xmlns="http://www.w3.org/2000/svg">
<circle cx="62.5" cy="62.5" r="62.5" fill="white"/>
<path d="M62.5024 24C56.4388 23.9998 50.5224 25.8681 45.5585 29.3504C40.5946 32.8328 36.8243 37.7602 34.7608 43.4619C32.6973 49.1636 32.4409 55.3626 34.0263 61.2153C35.6118 67.0679 38.9622 72.2899 43.6214 76.1704C47.5156 79.4195 50.7018 83.829 50.7018 88.9032H74.3029C74.3029 83.829 77.4891 79.4195 81.3833 76.1665C86.041 72.2856 89.39 67.0639 90.9746 61.2119C92.5591 55.36 92.3022 49.162 90.2389 43.4612C88.1756 37.7604 84.406 32.8338 79.4432 29.3516C74.4803 25.8694 68.565 24.0008 62.5024 24Z" stroke="black" stroke-width="1.5"/>
<path d="M74.303 88.9033H50.7018V96.7704C50.7018 98.3352 51.3235 99.836 52.43 100.943C53.5365 102.049 55.0373 102.671 56.6021 102.671H68.4027C69.9676 102.671 71.4683 102.049 72.5749 100.943C73.6814 99.836 74.303 98.3352 74.303 96.7704V88.9033Z" stroke="black" stroke-width="1.5" stroke-linejoin="round"/>
<path d="M54.6353 47.6014C54.6353 43.6168 58.1558 39.7344 62.5024 39.7344C66.8489 39.7344 70.3694 42.9599 70.3694 46.9445C70.3694 48.3803 69.9131 49.7177 69.1225 50.8427C66.7702 54.194 62.5024 57.3881 62.5024 61.3688" stroke="black" stroke-width="1.5" stroke-linecap="round"/>
<path d="M62.4709 71.2031H62.5058" stroke="black" stroke-width="2" stroke-linecap="round" stroke-linejoin="round"/>
</svg>
