<?xml version="1.0" encoding="UTF-8"?>
<svg id="Layer_2" data-name="Layer 2" xmlns="http://www.w3.org/2000/svg" viewBox="0 0 443.68 311.71">
  <defs>
    <style>
      .cls-1 {
        fill: #fff;
      }

      .cls-2 {
        fill: #603813;
      }

      .cls-3 {
        fill: none;
        stroke: #000;
        stroke-miterlimit: 10;
        stroke-width: 5px;
      }
    </style>
  </defs>
  <g>
    <path class="cls-2" d="M80.08,168.83c1.1-.68,2.15-1.47,3.12-2.34-11.6,3.29-23.2,6.58-34.79,9.87-1.39.39-3.19.67-3.9-.77-.49-1-.14-2.21.68-2.95,8.27-7.39,16.64-14.69,25.59-21.23-20.99,9.52-40.76,21.75-58.66,36.27-.45.37-.13,1.11.44,1.04,21.48-2.67,42.55-8.59,62.29-17.45,1.83-.59,3.59-1.4,5.22-2.43h.01ZM269.43,92.9c8.14-5.91,20.52-10.01,29.29-14.23,7.89-3.8,15.78-8.28,21.57-14.73,1.08-1.2-.01-3.08-1.58-2.71-31.04,7.41-61.69,16.46-91.78,27.1,16.11-4.16,32.86-6.44,49.41-8.39,1.29-.15,2.2,1.24,1.55,2.36-2.31,3.91-5.16,7.48-8.46,10.6ZM269.38,92.94c-.53.37-1.03.76-1.52,1.16h.25c.43-.38.86-.76,1.27-1.16ZM412.65,243.84c14.43,20.91,24.68,37.46,27.72,61.64-43.9-38.62-75.8-54.96-122.33-70.95-15.45-5.31-65.46-9.6-78-6.14,2.12,2.68.02,7.34-2.65,9.47-2.66,2.13-6.25,2.65-9.66,2.86-3.4.21-5.56-.42-8.7.92.83,5.09-2.04,8.13-5.25,12.17-3.21,4.03-5.86,4.75-11.01,5.08.28,4.13-2.64,12.9-4.83,16.42-1.91,9.01-54.79-30.68-105.44-74.32,4.49-10.16,3.52-22.36-2.82-31.47-25.48,17.46-72.42,29.23-86.69,26.53-7.33-9.16,69.55-61.52,75.31-70.15-8.44-14.26-17.68-25.42-30.98-35.32-10.51-12.57,14.59-42.49,66.68-64.1C210.23-13.45,219.36,8.55,219.36,8.55c.31,9.39,4.28,46.06,12.04,51.36,46.8-4.18,105.11-6.44,106.23-1.28,1.9,8.79-51.53,39.24-82.45,47.58,6.49,11.15,29.18,45.59,33.74,45.31,4.56-.27,16.11,1.19,20.19,3.25s7.87,7.38,10.38,10.66c9.31-.04,18.79-2.38,25.59,12.86,18.19,1.17,15.03,4.02,21.7,18.64,1.75,2.75,5.56,3.01,8.82,2.89,9.6-.35,13.89,8.08,14.79,12.89.89,4.81,11.8,14.03,18.84,17.79,3.71,1.97,3.23,9.05,3.42,13.34ZM406.86,237.65c0-3.09-2.5-5.59-5.59-5.59s-5.59,2.5-5.59,5.59,2.5,5.6,5.59,5.6,5.59-2.51,5.59-5.6ZM383.59,212.58c0-3.62-2.93-6.56-6.55-6.56s-6.55,2.94-6.55,6.56,2.93,6.55,6.55,6.55,6.55-2.93,6.55-6.55ZM357.31,192.41c0-3.97-3.21-7.18-7.18-7.18s-7.17,3.21-7.17,7.18,3.21,7.17,7.17,7.17,7.18-3.21,7.18-7.17ZM332.75,178.05c0-3.97-3.22-7.18-7.18-7.18s-7.18,3.21-7.18,7.18,3.22,7.18,7.18,7.18,7.18-3.22,7.18-7.18ZM305.03,166.39c0-3.96-3.21-7.18-7.18-7.18s-7.18,3.22-7.18,7.18,3.22,7.18,7.18,7.18,7.18-3.22,7.18-7.18ZM259.57,146.05c0-15.06-12.21-27.27-27.27-27.27s-27.28,12.21-27.28,27.27,12.21,27.28,27.28,27.28,27.27-12.22,27.27-27.28ZM231,221.51c1.17-1.73-3.15-3.13-4.34-3.64-14.07-6-23.57-19.13-32.35-31.66-4.51-6.44-9.06-12.97-11.79-20.35-2.76-7.47-3.59-15.7-7.52-22.63-1.26-2.23-2.92-4.35-5.22-5.47-2.3-1.11-5.37-.95-7.11.93-1.66,1.78-1.71,4.49-1.59,6.92.96,19.44,7.44,38.93,20.2,53.62,10.84,12.47,26.45,21.17,43.03,22.57,1.3.12,5.83.98,6.69-.29ZM221.72,59.13c.26-2.4-1.79-4.57-4.11-5.27-2.31-.71-4.8-.3-7.18.14-17.02,3.17-33.72,8.02-49.8,14.46-1.43.57-3.15,1.14-4.42.26-1.32-.92-1.32-2.98-.44-4.32.89-1.34,2.38-2.12,3.81-2.84-3.11-1.59-6.88-.54-10.1.81s-6.55,3.02-10.02,2.58c-3.46-.44-6.7-4.21-5.11-7.32.72-1.41,2.3-2.53,2.16-4.1-.18-2.19-3.22-2.59-5.39-2.25-14.75,2.32-28.74,9.25-39.51,19.59-.81.78-1.67,1.72-1.61,2.84.1,2.26,3.26,2.65,5.49,2.34,5.82-.81,11.65-1.62,17.47-2.43,1.81-.25,3.7-.49,5.43.08,1.74.57,3.26,2.22,3.05,4.03-.21,1.83-1.97,3.03-3.64,3.79s-3.54,1.42-4.53,2.97c-.99,1.54-.21,4.23,1.62,4.16.95-.03,1.7-.76,2.53-1.22s2.12-.53,2.5.34c-12.09,5.19-23,13.12-31.67,23.02-.68.78-1.36,2.01-.63,2.75.48.51,1.3.42,1.99.28,6.98-1.32,13.95-2.64,20.93-3.95l-.9.3-9.01,2.14c3.08-.41,6.07-1.17,9.01-2.14l2.73-.65c-.61.11-1.22.23-1.83.35,3.72-1.27,7.36-2.85,10.97-4.41,31.48-13.63,62.97-27.26,94.45-40.89,2.54-1.1,5.46-2.68,5.76-5.44ZM204.97,8.59c-4.92-2.67-10.93-1.99-16.44-1.02-34.33,6.08-66.44,20.75-98.13,35.27-6.78,3.11-8.96,4.87-15.1,9.11s-17.18,14.73-20.39,21.47c5.72-1.55,12.42-3.52,17.55-6.08,5.12-2.55,9.58-6.24,14.1-9.75,12.19-9.45,19.49-15.57,33.17-22.69,13.03-7.09,27.42-12.27,41.99-15.36,14.57-3.08,29.44-5.36,43.25-10.95ZM190.59,242.03c1.48,1.15,4.06,3.89,6.13,2.9-1.46-3.06-4.99-5.97-7.12-8.69-2.51-3.19-4.91-6.48-7.23-9.81-4.56-6.55-8.82-13.3-13.07-20.04-2.24-3.55-4.52-7.18-5.55-11.25-.92-3.63-.81-7.44-1.55-11.1-1.76-8.85-8.16-15.95-14.39-22.48-5.87-6.14-11.81-12.2-17.83-18.18-.8-.8-1.65-1.62-2.74-1.94-1.08-.33-2.47.05-2.89,1.09-.51,1.24.5,2.54,1.45,3.49,8.4,8.32,18.4,15.66,23.28,26.43,2.7,5.98,3.61,12.6,5.51,18.88,1.74,5.75,4.31,11.21,6.86,16.65,2.27,4.82,4.56,9.67,7.67,14,3.65,5.07,8.34,9.3,13.13,13.31,2.74,2.3,5.52,4.55,8.34,6.74ZM176.02,241.46c2.04,1.33,5.72,4.84,8.35,4.15-2.48-2.92-6.16-5.28-9.07-7.84-3.18-2.79-6.29-5.65-9.29-8.64-5.92-5.87-11.4-12.22-15.95-19.22-10.53-16.2-15.84-35.51-27.46-50.94-1.27,1.23-.77,3.3-.41,5.02.36,1.73.12,4.07-1.59,4.49-1.16.28-2.26-.56-3.16-1.34-5.22-4.51-10.43-9.03-15.65-13.55,2.26,15.81,12.81,29,22.97,41.33,6.46,7.84,12.94,15.7,20.26,22.75,6.27,6.03,13.11,11.42,20.19,16.45,3.55,2.52,7.17,4.95,10.81,7.34Z"/>
    <path class="cls-1" d="M401.27,232.06c3.09,0,5.59,2.5,5.59,5.59s-2.5,5.6-5.59,5.6-5.59-2.51-5.59-5.6,2.5-5.59,5.59-5.59Z"/>
    <path class="cls-1" d="M377.04,206.02c3.62,0,6.55,2.94,6.55,6.56s-2.93,6.55-6.55,6.55-6.55-2.93-6.55-6.55,2.93-6.56,6.55-6.56Z"/>
    <path class="cls-1" d="M350.13,185.23c3.97,0,7.18,3.21,7.18,7.18s-3.21,7.17-7.18,7.17-7.17-3.21-7.17-7.17,3.21-7.18,7.17-7.18Z"/>
    <circle class="cls-1" cx="325.57" cy="178.05" r="7.18"/>
    <path d="M318.71,61.23c1.57-.37,2.66,1.51,1.58,2.71-5.79,6.45-13.68,10.93-21.57,14.73-8.77,4.22-21.15,8.32-29.29,14.23,3.3-3.12,6.15-6.69,8.46-10.6.65-1.12-.26-2.51-1.55-2.36-16.55,1.95-33.3,4.23-49.41,8.39,30.09-10.64,60.74-19.69,91.78-27.1Z"/>
    <circle class="cls-1" cx="297.85" cy="166.39" r="7.18"/>
    <path d="M269.38,92.94c-.41.4-.84.78-1.27,1.16h-.25c.49-.4.99-.79,1.52-1.16Z"/>
    <path class="cls-1" d="M232.3,118.78c15.06,0,27.27,12.21,27.27,27.27s-12.21,27.28-27.27,27.28-27.28-12.22-27.28-27.28,12.21-27.27,27.28-27.27ZM253.06,145.85c0-11.35-9.2-20.54-20.54-20.54s-20.54,9.19-20.54,20.54,9.19,20.54,20.54,20.54,20.54-9.2,20.54-20.54Z"/>
    <circle class="cls-1" cx="232.52" cy="145.85" r="20.54"/>
    <path d="M226.66,217.87c1.19.51,5.51,1.91,4.34,3.64-.86,1.27-5.39.41-6.69.29-16.58-1.4-32.19-10.1-43.03-22.57-12.76-14.69-19.24-34.18-20.2-53.62-.12-2.43-.07-5.14,1.59-6.92,1.74-1.88,4.81-2.04,7.11-.93,2.3,1.12,3.96,3.24,5.22,5.47,3.93,6.93,4.76,15.16,7.52,22.63,2.73,7.38,7.28,13.91,11.79,20.35,8.78,12.53,18.28,25.66,32.35,31.66Z"/>
    <path d="M217.61,53.86c2.32.7,4.37,2.87,4.11,5.27-.3,2.76-3.22,4.34-5.76,5.44-31.48,13.63-62.97,27.26-94.45,40.89-3.61,1.56-7.25,3.14-10.97,4.41-6.98,1.31-13.95,2.63-20.93,3.95-.69.14-1.51.23-1.99-.28-.73-.74-.05-1.97.63-2.75,8.67-9.9,19.58-17.83,31.67-23.02-.38-.87-1.67-.8-2.5-.34s-1.58,1.19-2.53,1.22c-1.83.07-2.61-2.62-1.62-4.16.99-1.55,2.86-2.21,4.53-2.97s3.43-1.96,3.64-3.79c.21-1.81-1.31-3.46-3.05-4.03-1.73-.57-3.62-.33-5.43-.08-5.82.81-11.65,1.62-17.47,2.43-2.23.31-5.39-.08-5.49-2.34-.06-1.12.8-2.06,1.61-2.84,10.77-10.34,24.76-17.27,39.51-19.59,2.17-.34,5.21.06,5.39,2.25.14,1.57-1.44,2.69-2.16,4.1-1.59,3.11,1.65,6.88,5.11,7.32,3.47.44,6.8-1.23,10.02-2.58s6.99-2.4,10.1-.81c-1.43.72-2.92,1.5-3.81,2.84-.88,1.34-.88,3.4.44,4.32,1.27.88,2.99.31,4.42-.26,16.08-6.44,32.78-11.29,49.8-14.46,2.38-.44,4.87-.85,7.18-.14Z"/>
    <path d="M188.53,7.57c5.51-.97,11.52-1.65,16.44,1.02-13.81,5.59-28.68,7.87-43.25,10.95-14.57,3.09-28.96,8.27-41.99,15.36-13.68,7.12-20.98,13.24-33.17,22.69-4.52,3.51-8.98,7.2-14.1,9.75-5.13,2.56-11.83,4.53-17.55,6.08,3.21-6.74,14.25-17.23,20.39-21.47s8.32-6,15.1-9.11c31.69-14.52,63.8-29.19,98.13-35.27Z"/>
    <path d="M196.72,244.93c-2.07.99-4.65-1.75-6.13-2.9-2.82-2.19-5.6-4.44-8.34-6.74-4.79-4.01-9.48-8.24-13.13-13.31-3.11-4.33-5.4-9.18-7.67-14-2.55-5.44-5.12-10.9-6.86-16.65-1.9-6.28-2.81-12.9-5.51-18.88-4.88-10.77-14.88-18.11-23.28-26.43-.95-.95-1.96-2.25-1.45-3.49.42-1.04,1.81-1.42,2.89-1.09,1.09.32,1.94,1.14,2.74,1.94,6.02,5.98,11.96,12.04,17.83,18.18,6.23,6.53,12.63,13.63,14.39,22.48.74,3.66.63,7.47,1.55,11.1,1.03,4.07,3.31,7.7,5.55,11.25,4.25,6.74,8.51,13.49,13.07,20.04,2.32,3.33,4.72,6.62,7.23,9.81,2.13,2.72,5.66,5.63,7.12,8.69Z"/>
    <path d="M184.37,245.61c-2.63.69-6.31-2.82-8.35-4.15-3.64-2.39-7.26-4.82-10.81-7.34-7.08-5.03-13.92-10.42-20.19-16.45-7.32-7.05-13.8-14.91-20.26-22.75-10.16-12.33-20.71-25.52-22.97-41.33,5.22,4.52,10.43,9.04,15.65,13.55.9.78,2,1.62,3.16,1.34,1.71-.42,1.95-2.76,1.59-4.49-.36-1.72-.86-3.79.41-5.02,11.62,15.43,16.93,34.74,27.46,50.94,4.55,7,10.03,13.35,15.95,19.22,3,2.99,6.11,5.85,9.29,8.64,2.91,2.56,6.59,4.92,9.07,7.84Z"/>
    <path d="M112.37,109.52l-2.73.65.9-.3c.61-.12,1.22-.24,1.83-.35Z"/>
    <path d="M100.63,112.31l9.01-2.14c-2.94.97-5.93,1.73-9.01,2.14Z"/>
    <path d="M48.41,176.36c11.59-3.29,23.19-6.58,34.79-9.87-.97.87-2.02,1.66-3.12,2.34h-.01s-5.22,2.44-5.22,2.44c-19.74,8.86-40.81,14.78-62.29,17.45-.57.07-.89-.67-.44-1.04,17.9-14.52,37.67-26.75,58.66-36.27-8.95,6.54-17.32,13.84-25.59,21.23-.82.74-1.17,1.95-.68,2.95.71,1.44,2.51,1.16,3.9.77Z"/>
    <path d="M74.85,171.27l5.22-2.43c-1.73.83-3.47,1.64-5.22,2.43Z"/>
    <path d="M74.85,171.27c1.75-.79,3.49-1.6,5.22-2.43-1.63,1.03-3.39,1.84-5.22,2.43Z"/>
  </g>
  <g>
    <path class="cls-3" d="M78.3,125.9c-5.76,8.63-82.64,60.99-75.31,70.15,14.27,2.7,61.21-9.07,86.69-26.53,6.34,9.11,7.31,21.31,2.82,31.47,50.65,43.64,103.53,83.33,105.44,74.32,2.19-3.52,5.11-12.29,4.83-16.42,5.15-.33,7.8-1.05,11.01-5.08,3.21-4.04,6.08-7.08,5.25-12.17,3.14-1.34,5.3-.71,8.7-.92,3.41-.21,7-.73,9.66-2.86,2.67-2.13,4.77-6.79,2.65-9.47,12.54-3.46,62.55.83,78,6.14,46.53,15.99,78.43,32.33,122.33,70.95-3.04-24.18-13.29-40.73-27.72-61.64-.19-4.29.29-11.37-3.42-13.34-7.04-3.76-17.95-12.98-18.84-17.79-.9-4.81-5.19-13.24-14.79-12.89-3.26.12-7.07-.14-8.82-2.89-6.67-14.62-3.51-17.47-21.7-18.64-6.8-15.24-16.28-12.9-25.59-12.86-2.51-3.28-6.3-8.6-10.38-10.66s-15.63-3.52-20.19-3.25c-4.56.28-27.25-34.16-33.74-45.31,30.92-8.34,84.35-38.79,82.45-47.58-1.12-5.16-59.43-2.9-106.23,1.28-7.76-5.3-11.73-41.97-12.04-51.36,0,0-9.13-22-105.36,17.93-52.09,21.61-77.19,51.53-66.68,64.1,13.3,9.9,22.54,21.06,30.98,35.32Z"/>
    <circle class="cls-3" cx="232.52" cy="145.85" r="20.54"/>
  </g>
</svg>