<svg width="87" height="77" viewBox="0 0 87 77" fill="none" xmlns="http://www.w3.org/2000/svg">
<g clip-path="url(#clip0_206_12)">
<path d="M60.4167 0H26.5833C22.5807 0 19.3182 3.27852 19.4693 7.24883C19.4995 8.0459 19.5297 8.84297 19.575 9.625H3.625C1.61615 9.625 0 11.2342 0 13.2344C0 27.1605 5.0599 36.8457 11.8568 43.4178C18.5479 49.8996 26.7042 53.1631 32.7156 54.8174C36.25 55.7949 38.6667 58.7275 38.6667 61.6752C38.6667 64.8184 36.099 67.375 32.9422 67.375H29C26.3266 67.375 24.1667 69.5256 24.1667 72.1875C24.1667 74.8494 26.3266 77 29 77H58C60.6734 77 62.8333 74.8494 62.8333 72.1875C62.8333 69.5256 60.6734 67.375 58 67.375H54.0578C50.901 67.375 48.3333 64.8184 48.3333 61.6752C48.3333 58.7275 50.7349 55.7799 54.2844 54.8174C60.3109 53.1631 68.4672 49.8996 75.1583 43.4178C81.9401 36.8457 87 27.1605 87 13.2344C87 11.2342 85.3839 9.625 83.375 9.625H67.425C67.4703 8.84297 67.5005 8.06094 67.5307 7.24883C67.6818 3.27852 64.4193 0 60.4167 0ZM7.38594 16.8438H20.1339C21.5083 30.3939 24.5443 39.4475 27.9729 45.5082C24.212 43.8539 20.3 41.5229 16.9167 38.2443C12.0833 33.5672 8.15625 26.8146 7.40104 16.8438H7.38594ZM70.0984 38.2443C66.7151 41.5229 62.8031 43.8539 59.0422 45.5082C62.4708 39.4475 65.5068 30.3939 66.8812 16.8438H79.6292C78.8589 26.8146 74.9318 33.5672 70.1135 38.2443H70.0984Z" fill="black"/>
</g>
<defs>
<clipPath id="clip0_206_12">
<rect width="87" height="77" fill="white"/>
</clipPath>
</defs>
</svg>
