<?xml version="1.0" encoding="UTF-8"?>
<svg id="Layer_2" data-name="Layer 2" xmlns="http://www.w3.org/2000/svg" viewBox="0 0 476.31 895.53">
  <defs>
    <style>
      .cls-1 {
        fill: #4e685c;
        stroke: #004e2a;
      }

      .cls-1, .cls-2 {
        stroke-miterlimit: 10;
        stroke-width: 5px;
      }

      .cls-2 {
        fill: #a67c52;
        stroke: #a65b10;
      }
    </style>
  </defs>
  <path class="cls-1" d="M320.55,864.28c3.89,12.38,10.21,26.92,23.08,28.6,10.25,1.34,19.75-7.07,23.24-16.81s2.44-20.43,1.36-30.71c-18.06-172.73-29.12-346.2-33.14-519.83-.36-15.66,2.58-35.79,17.83-39.36,12.48-2.92,23.62,8.18,30.64,18.9,23.14,35.32,33.26,78.97,28.03,120.87-2.3,18.42-5.82,41.09,9.2,52,12.58,9.14,31.61,2.63,40.86-9.88,9.25-12.51,11.09-28.88,11.77-44.43,1.55-35.38-1.33-71.33-12.79-104.83-11.46-33.5-31.95-64.53-60.93-84.87-48.8-34.25-113.02-34.04-172.62-32.52-40.85,1.05-82.82,2.32-120.46,18.24-42.44,17.94-83.1,52.03-93.53,96.91C-.38,374.52.31,407.97,7.85,452.11c3.2,18.75,18.75,39.17,37.5,36.01,13.44-2.27,25.38-15.93,24.82-29.55-1.2-29.16-2.95-49.55-2.47-76.17s12.65-59.27,34.49-74.52c10.05-7.02,23.71-10.23,34.7-4.81,16.52,8.14,19.38,30.15,19.44,48.57.34,110.6-21.89,219.87-33.2,329.89-1.44,13.96-2.67,28.3,1.01,41.84s13.3,26.33,26.89,29.85c12.71,3.28,26.44-2.18,36.09-11.07s15.95-20.77,21.62-32.61c5.76-12.02,8.83-25.59,13.69-38.01,2.23-5.69,11.1-68.29,15.81-65.51,12.42,7.34,27.58,77.69,30.49,86.96,17.96,57.14,33.84,114.15,51.8,171.29Z"/>
  <circle class="cls-1" cx="248.13" cy="91.44" r="88.94"/>
  <path class="cls-2" d="M418.09,608.1c-12.83-37.91-6.05-277.79-54.43-264.71-44.11,11.93,14.77,167.94,28.82,247.64,17.32,77.38,23.52,156.71,39.75,234.3,3.47,16.59,5.19,42.64,14.23,57.08,9.95,15.9,15.96,8.81,13.83-6.82-13.22-89.28-28.6-178.27-42.21-267.5Z"/>
  <path class="cls-2" d="M65,608.1c12.83-37.91,6.05-277.79,54.43-264.71,44.11,11.93-14.77,167.94-28.82,247.64-17.32,77.38-23.52,156.71-39.75,234.3-3.47,16.59-5.19,42.64-14.23,57.08-9.95,15.9-15.96,8.81-13.83-6.82,13.22-89.28,28.6-178.27,42.21-267.5Z"/>
</svg>