<svg width="44" height="77" viewBox="0 0 44 77" fill="none" xmlns="http://www.w3.org/2000/svg">
<path d="M7.60369 22.0684C7.60098 19.6398 8.2098 17.2498 9.37377 15.1198C10.5377 12.9898 12.2192 11.1888 14.2623 9.88344C16.3055 8.57814 18.6443 7.81083 21.062 7.65259C23.4797 7.49436 25.8982 7.95033 28.0933 8.97825C30.2885 10.0062 32.1893 11.5728 33.6197 13.533C35.0501 15.4932 35.9638 17.7835 36.2762 20.1919C36.5885 22.6002 36.2894 25.0486 35.4066 27.3102C34.5238 29.5718 33.0858 31.5736 31.2258 33.1299C28.5797 35.3503 25.376 38.0586 22.8618 41.1987C20.3221 44.3489 18.1982 48.2919 18.1982 53.002V57.1787C18.1982 58.1894 18.5987 59.1587 19.3117 59.8733C20.0247 60.588 20.9917 60.9895 22 60.9895C23.0083 60.9895 23.9753 60.588 24.6883 59.8733C25.4013 59.1587 25.8018 58.1894 25.8018 57.1787V53.002C25.8018 50.7003 26.8207 48.4138 28.7825 45.9749C30.7594 43.5156 33.3903 41.2546 36.1074 38.9732C38.9478 36.5938 41.1434 33.5346 42.4908 30.0786C43.8382 26.6227 44.2939 22.8818 43.8156 19.2025C43.3372 15.5231 41.9404 12.0242 39.7545 9.0298C37.5685 6.03538 34.6641 3.64224 31.3102 2.072C27.9563 0.501762 24.2613 -0.194804 20.5675 0.0468051C16.8736 0.288415 13.3002 1.46039 10.1784 3.4542C7.05646 5.44801 4.48695 8.19918 2.70776 11.453C0.928575 14.7067 -0.00275811 18.3579 6.13539e-06 22.0684C6.13539e-06 23.0791 0.400558 24.0484 1.11354 24.763C1.82653 25.4777 2.79354 25.8792 3.80185 25.8792C4.81016 25.8792 5.77718 25.4777 6.49016 24.763C7.20314 24.0484 7.60369 23.0791 7.60369 22.0684ZM21.9899 67.854C20.7799 67.854 19.6195 68.3358 18.7639 69.1934C17.9083 70.051 17.4277 71.2142 17.4277 72.427C17.4277 73.6399 17.9083 74.803 18.7639 75.6606C19.6195 76.5182 20.7799 77 21.9899 77C23.1998 77 24.3603 76.5182 25.2158 75.6606C26.0714 74.803 26.5521 73.6399 26.5521 72.427C26.5521 71.2142 26.0714 70.051 25.2158 69.1934C24.3603 68.3358 23.1998 67.854 21.9899 67.854Z" fill="black"/>
</svg>
