<?xml version="1.0" encoding="UTF-8"?>
<svg id="Layer_1" xmlns="http://www.w3.org/2000/svg" xmlns:xlink="http://www.w3.org/1999/xlink" version="1.1" viewBox="0 0 125 125">
  <!-- Generator: Adobe Illustrator 29.8.2, SVG Export Plug-In . SVG Version: 2.1.1 Build 3)  -->
  <defs>
    <style>
      .st0 {
        fill: none;
      }

      .st1 {
        fill: #ffc7c2;
      }

      .st2 {
        fill: #e3e3e3;
      }

      .st3 {
        clip-path: url(#clippath);
      }

      .st4 {
        fill: #008c61;
      }

      .st5 {
        fill: #b2b2b2;
      }
    </style>
    <clipPath id="clippath">
      <rect class="st0" x="16.71" y="39.66" width="80" height="80"/>
    </clipPath>
  </defs>
  <path class="st1" d="M96.54,45.16c-2.95-2.33-6.51-7.09-6.51-17.27,0-14.22-10.18-21.04-18.83-24.13-3.86-1.34-7.85-2.25-11.9-2.71-1.81-.23-3.64-.36-5.47-.39-13.4,0-23.56,4.23-31.09,10.81-7.46,6.5-12.11,15.05-15.01,23.32-2.48,7.29-4.04,14.88-4.66,22.57-.26,3.06-.34,5.61-.36,7.42-.17,18.81,5.69,39.54,22.5,49.54,13.23,7.85,30.39,9.35,46.44,9.35,14.83,0,27.63-2.44,36.79-9.22,9.44-7,14.27-18.03,14.27-33.24,0-13.99-4.46-22.43-9.5-27.36-2-1.97-4.32-3.56-6.85-4.72-3.34-1.5-6.83-1.58-9.82-3.95Z"/>
  <g class="st3">
    <g>
      <path class="st2" d="M32.01,80.44c-.19,3.86,1.1,7.65,3.6,10.59,2.5,2.94,6.04,4.82,9.88,5.26.21.02.42.09.61.19.19.1.35.25.48.42.13.17.23.37.28.57.05.21.06.43.03.64l-1.86,12.38c-.03.23-.02.46.05.68.06.22.17.43.32.6.15.17.34.31.54.41.21.09.44.14.67.14h28.43c.42,0,.83-.17,1.13-.47.3-.3.47-.7.47-1.13v-11.8c0-1.77.44-3.51,1.27-5.06.83-1.56,2.04-2.88,3.51-3.86,1.47-.98,2.68-2.31,3.51-3.86.83-1.56,1.27-3.3,1.27-5.06v-.64h-54.2Z"/>
      <path class="st5" d="M83.47,88.22c1.77-1.96,2.74-4.51,2.74-7.15v-.64h-54.2c-.02,2.71.61,5.38,1.84,7.79h49.62Z"/>
      <path class="st4" d="M89.4,77.25c0,.42-.08.83-.24,1.22-.16.39-.4.74-.69,1.03-.3.3-.65.53-1.03.69-.39.16-.8.24-1.22.24h-15.94v-35.07c0-1.69.67-3.31,1.87-4.51,1.2-1.2,2.82-1.87,4.51-1.87h6.38c1.69,0,3.31.67,4.51,1.87s1.87,2.82,1.87,4.51v31.88Z"/>
      <path class="st4" d="M32.01,80.44c-.19,3.86,1.1,7.65,3.6,10.59,2.5,2.94,6.04,4.82,9.88,5.26.21.02.42.09.61.19.19.1.35.25.48.42.13.17.23.37.28.57.05.21.06.43.03.64l-1.86,12.38c-.03.23-.02.46.05.68.06.22.17.43.32.6.15.17.34.31.54.41.21.09.44.14.67.14h28.43c.42,0,.83-.17,1.13-.47.3-.3.47-.7.47-1.13v-11.8c0-1.77.44-3.51,1.27-5.06.83-1.56,2.04-2.88,3.51-3.86,1.47-.98,2.68-2.31,3.51-3.86.83-1.56,1.27-3.3,1.27-5.06v-.64h-54.2Z"/>
      <path class="st4" d="M70.27,80.44H30.41c-.42,0-.83-.17-1.13-.47-.3-.3-.47-.7-.47-1.13v-6.38c0-.42.17-.83.47-1.12.3-.3.7-.47,1.12-.47h39.86v9.57Z"/>
      <path class="st1" d="M81.43,53.34c.85,0,1.66-.34,2.25-.93.6-.6.93-1.41.93-2.25s-.34-1.66-.93-2.25c-.6-.6-1.41-.93-2.25-.93s-1.66.34-2.25.93c-.6.6-.93,1.41-.93,2.25s.34,1.66.93,2.25c.6.6,1.41.93,2.25.93Z"/>
    </g>
  </g>
</svg>