<?xml version="1.0" encoding="UTF-8"?>
<svg id="Layer_1" data-name="Layer 1" xmlns="http://www.w3.org/2000/svg" viewBox="0 0 749.71 632.06">
  <defs>
    <style>
      .cls-1 {
        fill: #c16b6e;
      }

      .cls-2 {
        fill: #c19c9d;
      }

      .cls-3 {
        fill: none;
      }

      .cls-3, .cls-4 {
        stroke: #780000;
        stroke-miterlimit: 10;
        stroke-width: 5px;
      }

      .cls-4 {
        fill: #780000;
      }

      .cls-5 {
        fill: #c19b9d;
      }
    </style>
  </defs>
  <g>
    <g>
      <path class="cls-1" d="M747.19,451.01c.58,36.19-10.72,71.88-28.09,103.64-7.62,13.93-17.01,27.78-31.06,35.18-17.01,8.96-36.75,6.66-55.54.49-7.43-2.44-14.71-5.49-21.61-8.68-30.67-14.19-60.08-31.11-87.78-50.47,11.14-10.97,18.47-25.64,25.28-39.92,41.71-87.39,78.68-179.47,83.68-276.18.55-10.61.64-21.48-.38-32.12h0c6.09,4.84,11.66,10.34,16.56,16.39,16.68,20.57,25.28,46.3,35.57,70.7,25.03,59.35,62.35,116.56,63.37,180.97Z"/>
      <path class="cls-2" d="M632.5,590.32l-.2.61c-35.35-2.24-70.69-4.49-106.03-6.73-23.01-1.46-47.12-3.26-66.55-15.66-24.09-15.38-36.31-44.59-38.93-73.04-2.61-28.46,2.91-56.93,6.85-85.23,2.89-20.74,4.89-42.09,2.29-62.73,11.8,6.36,22.19,15.35,29.98,26.27,15.05,21.1,20.09,49.02,13.38,74.06-4.11,15.36-12.32,29.38-16.56,44.71-4.24,15.34-3.65,33.63,7.63,44.85,13.36,13.3,36.73,10.84,51.89-.37,2.44-1.81,4.72-3.78,6.86-5.89,27.7,19.36,57.11,36.28,87.78,50.47,6.9,3.19,14.18,6.24,21.61,8.68Z"/>
      <path class="cls-1" d="M631.69,182.95c1.02,10.64.93,21.51.38,32.12-5,96.71-41.97,188.79-83.68,276.18-6.81,14.28-14.14,28.95-25.28,39.92-2.14,2.11-4.42,4.08-6.86,5.89-15.16,11.21-38.53,13.67-51.89.37-11.28-11.22-11.87-29.51-7.63-44.85,4.24-15.33,12.45-29.35,16.56-44.71,6.71-25.04,1.67-52.96-13.38-74.06-7.79-10.92-18.18-19.91-29.98-26.27-.94-7.52-2.49-14.94-4.84-22.2-5.54-17.16-15.3-32.74-20.47-50.01-5.31-17.74-5.58-36.77-2.36-55,4.91-27.75,17.42-52.93,30.84-77.9-4.09-20.66-3.97-42.16.64-62.71,3.75-16.76,12.96-35.14,29.84-38.34,11.76-2.23,23.36,3.76,33.75,9.72,27.2,15.61,53.74,32.35,79.55,50.16,15.57,10.75,31.25,22.3,41.32,38.32,8.17,13.02,12,27.95,13.49,43.36h0Z"/>
      <path class="cls-1" d="M165.27,523.74s-.01.06-.01.09c-21.88-18.7-49.54-51.63-65.5-74.87-16.98-24.71-34.72-49.66-43.35-78.37-3.98-13.27-5.24-33.29-3.97-47.13v-.23c58.56-.43,270.22,3.18,286,33.67,8.12,15.67,25.67,75.1-5.25,123.89-16.64,26.29-47.38,49.5-101.25,61.1-33.12,7.13-59.46-11.75-65.4-16.97-.18-.16-.35-.31-.49-.45l-.36-.34h-.01c-.26-.27-.4-.44-.4-.49,0,.03-.01.07-.01.1Z"/>
      <path class="cls-5" d="M336.15,499.48c1.18,10.77,1.72,22.19-3.05,31.92-4.63,9.44-13.62,15.94-22.72,21.23-34.78,20.26-75.1,28.42-114.64,35.94-30.68,5.83-60.27,11.46-91.13,16.25h-.01c10.36-6.62,18.97-15.64,27.45-24.56,11.81-12.43,23.89-25.25,30.44-41.1,1.87-4.5,2.1-10.42,2.77-15.33.43.38.86.74,1.28,1.09,5.94,5.22,32.28,24.1,65.4,16.97,53.87-11.6,84.61-34.81,101.25-61.1h.01c1.77,9.09,1.94,9.49,2.95,18.69Z"/>
      <path class="cls-5" d="M166.05,524.47c.14.14.31.29.49.45-.42-.35-.85-.71-1.28-1.09,0-.03,0-.06.01-.09l.41.38h.01c.1.11.22.23.36.35Z"/>
      <path class="cls-1" d="M165.69,524.13l.36.34c-.14-.12-.26-.24-.36-.34Z"/>
      <path class="cls-5" d="M165.68,524.12l-.41-.38s.01-.07.01-.1c0,.05.14.22.4.48Z"/>
      <path class="cls-1" d="M165.26,523.83c-.67,4.91-.9,10.83-2.77,15.33-6.55,15.85-18.63,28.67-30.44,41.1-8.48,8.92-17.09,17.94-27.45,24.55-.35.23-.7.45-1.05.67-11.54,7.11-24.76,10.89-37.79,14.58-10.4,2.96-20.81,5.91-31.21,8.86-1.69.48-3.51.96-5.16.36-3.96-1.43-3.58-7.05-2.79-11.18,6.11-31.96-8.61-63.68-16.63-95.22-10.58-41.59-9.51-85.78.63-127.48,6.05-24.9,15.31-48.9,26.93-71.75.34-.18,5.76-.35,14.91-.42v.23c-1.27,13.84-.01,33.86,3.97,47.13,8.63,28.71,26.37,53.66,43.35,78.37,15.96,23.24,43.62,56.17,65.5,74.87Z"/>
    </g>
    <g>
      <path class="cls-3" d="M429.93,347.54c2.6,20.64.6,41.99-2.29,62.73-3.94,28.3-9.46,56.77-6.85,85.23,2.62,28.45,14.84,57.66,38.93,73.04,19.43,12.4,43.54,14.2,66.55,15.66,35.34,2.24,70.68,4.49,106.03,6.73"/>
      <path class="cls-3" d="M631.69,182.94h0c1.02,10.65.93,21.52.38,32.13-5,96.71-41.97,188.79-83.68,276.18-6.81,14.28-14.14,28.95-25.28,39.92-2.14,2.11-4.42,4.08-6.86,5.89-15.16,11.21-38.53,13.67-51.89.37-11.28-11.22-11.87-29.51-7.63-44.85,4.24-15.33,12.45-29.35,16.56-44.71,6.71-25.04,1.67-52.96-13.38-74.06-7.79-10.92-18.18-19.91-29.98-26.27-.94-7.52-2.49-14.94-4.84-22.2-5.54-17.16-15.3-32.74-20.47-50.01-5.31-17.74-5.58-36.77-2.36-55,4.91-27.75,17.42-52.93,30.84-77.9-4.09-20.66-3.97-42.16.64-62.71,3.75-16.76,12.96-35.14,29.84-38.34,11.76-2.23,23.36,3.76,33.75,9.72,27.2,15.61,53.74,32.35,79.55,50.16,15.57,10.75,31.25,22.3,41.32,38.32,8.17,13.02,12,27.95,13.49,43.36Z"/>
      <path class="cls-3" d="M523.11,531.17c27.7,19.36,57.11,36.28,87.78,50.47,6.9,3.19,14.18,6.24,21.61,8.68,18.79,6.17,38.53,8.47,55.54-.49,14.05-7.4,23.44-21.25,31.06-35.18,17.37-31.76,28.67-67.45,28.09-103.64-1.02-64.41-38.34-121.62-63.37-180.97-10.29-24.4-18.89-50.13-35.57-70.7-4.9-6.05-10.47-11.55-16.56-16.4"/>
      <path class="cls-3" d="M166.54,524.92c-.42-.35-.85-.71-1.28-1.09-21.88-18.7-49.54-51.63-65.5-74.87-16.98-24.71-34.72-49.66-43.35-78.37-3.98-13.27-5.24-33.29-3.97-47.13"/>
      <line class="cls-3" x1="165.69" y1="524.13" x2="166.05" y2="524.47"/>
      <polyline class="cls-3" points="152.81 512.2 165.27 523.74 165.68 524.12"/>
      <path class="cls-3" d="M165.68,524.12c-.26-.26-.4-.43-.4-.48,0,.03-.01.07-.01.1-.01.03-.01.06-.01.09-.67,4.91-.9,10.83-2.77,15.33-6.55,15.85-18.63,28.67-30.44,41.1-8.48,8.92-17.09,17.94-27.45,24.55-.35.23-.7.45-1.05.67-11.54,7.11-24.76,10.89-37.79,14.58-10.4,2.96-20.81,5.91-31.21,8.86-1.69.48-3.51.96-5.16.36-3.96-1.43-3.58-7.05-2.79-11.18,6.11-31.96-8.61-63.68-16.63-95.22-10.58-41.59-9.51-85.78.63-127.48,6.05-24.9,15.31-48.9,26.93-71.75.34-.18,5.76-.35,14.91-.42,58.56-.43,270.22,3.18,286,33.67,8.12,15.67,25.67,75.1-5.25,123.89-16.64,26.29-47.38,49.5-101.25,61.1-33.12,7.13-59.46-11.75-65.4-16.97-.18-.16-.35-.31-.49-.45-.14-.12-.26-.24-.36-.34h-.01Z"/>
      <path class="cls-3" d="M333.2,480.8c1.77,9.08,1.94,9.48,2.95,18.68,1.18,10.77,1.72,22.19-3.05,31.92-4.63,9.44-13.62,15.94-22.72,21.23-34.78,20.26-75.1,28.42-114.64,35.94-30.68,5.83-60.27,11.46-91.13,16.25"/>
    </g>
  </g>
  <g>
    <path class="cls-1" d="M290.71,156.23c11.83,21.86,23.21,43.88,31.47,67.53,10.83,31.02,9.49,47.76,20.33,78.78,2.08,5.96,5.27,32.31,4.56,38.59-1.35,11.92-12.37,20.38-23.42,25.07-26.5,11.25-56.6,8.95-85.15,5.23-64.78-8.42-128.74-23.07-190.72-43.68-8.88-2.96-18.77-7.01-22.04-15.79-2.49-6.65-.33-14.04,1.89-20.78,14.61-44.32,31.96-87.96,55.55-128.23,23.59-40.27,53.65-77.2,90.95-105.24,11.74-8.82,24.34-16.82,38.3-21.37,13.97-4.55,29.5-5.44,43.21-.18,17.46,6.68,30.21,22.74,36.19,40.45,5.99,17.71,5.89,36.95,3.43,55.47-1.07,8.13-2.6,16.19-4.55,24.15Z"/>
    <g>
      <path class="cls-3" d="M290.71,156.23c-10.51-19.44-21.38-38.75-30.72-58.94"/>
      <path class="cls-3" d="M290.71,156.23c1.95-7.96,3.48-16.02,4.55-24.15,2.46-18.52,2.56-37.76-3.43-55.47-5.98-17.71-18.73-33.77-36.19-40.45-13.71-5.26-29.24-4.37-43.21.18-13.96,4.55-26.56,12.55-38.3,21.37-37.3,28.04-67.36,64.97-90.95,105.24-23.59,40.27-40.94,83.91-55.55,128.23-2.22,6.74-4.38,14.13-1.89,20.78,3.27,8.78,13.16,12.83,22.04,15.79,61.98,20.61,125.94,35.26,190.72,43.68,28.55,3.72,58.65,6.02,85.15-5.23,11.05-4.69,22.07-13.15,23.42-25.07.71-6.28-2.48-32.63-4.56-38.59-10.84-31.02-9.5-47.76-20.33-78.78-8.26-23.65-19.64-45.67-31.47-67.53Z"/>
    </g>
  </g>
  <path class="cls-4" d="M336.84,10.09c-.91,30.16-1.83,60.33-2.74,90.49-.75,24.76-2.01,51.12-16.34,71.33-12.54,17.69-34.67,28.12-56.3,26.54s-42-15.12-51.84-34.45c6.48,5.33,9.53,9.61,11.45,17.77.27,1.16.46,2.5-.25,3.45-.93,1.25-2.81,1.15-4.34.83-12.84-2.62-24.31-11.3-30.32-22.95,7.26,4.8,6.77,12.93,4.34,21.29-12.25-1.64-23.99-6.86-33.41-14.87,8.76,4.5,18.32,8.67,27.08,13.17,2.95,1.52,6.18,3.36,7.14,6.54,1.07,3.57-1.2,7.26-3.71,10.02-7.11,7.78-17.14,12.82-27.63,13.88,1.36-1.96,7.35-5.92,9.39-7.14s4.9-1.45,6.68.14c2.6,2.31,1.43,6.66-.61,9.48s-4.85,5.41-5.21,8.87c2.83-4.91,9.18-12.32,12.01-17.24,2.3-4,4.67-8.08,8.18-11.09s8.41-4.79,12.81-3.41c5.44,1.71,8.58,8.07,7.64,13.69s-5.24,10.29-10.35,12.81-10.96,3.15-16.66,3.09c.76-.14,1.53-.28,2.29-.42,5.4-.98,13.03-2.69,15.07,2.41s.64,10.93-1.64,15.92c.54-1.06,1.08-2.12,1.62-3.19,4.01-7.87,7-15.38,9.39-23.88.81-2.88,1.82-6.03,4.38-7.56,3.14-1.87,7.14-.51,10.52.89,8.9,3.68,17.81,7.37,26.71,11.05,6.31,2.61,13.2,5.78,15.89,12.05,2.51,5.86.51,12.67-2.39,18.35-8.85,17.34-25.25,29.48-41.89,39.6-8.65,5.26-17.73,10.23-27.68,12.08s-21.04.15-28.55-6.64c3.1,1.61,8.24-.34,10.7,2.14s4.15,5.98,3.61,9.43c-.95,6.05-7.72,9.04-13.54,10.97,6.07-2.81,13.07-9.14,19.61-10.5,2.92-.61,5.95-1.07,8.87-.43s5.71,2.57,6.6,5.41c1.46,4.68-2.55,9.24-6.57,12.05-8.58,5.99-18.91,9.43-29.37,9.77,5.68-7.75,9.8-9.92,19.19-11.97,2.2-.48,4.64-.73,6.56.43,3.03,1.83,3.26,6.11,2.73,9.61-1.36,8.94-5.45,17.45-11.59,24.08,12.57-25.76,34.84-45.96,61.74-55.84,2.69-.99,6.02-1.76,8.15.16,1.8,1.62,1.81,4.39,1.61,6.81-2.16,25.72-14.14,50.49-32.95,68.15-18.82,17.66-44.3,28.04-70.1,28.57,4.41-2.23,9.05-4.51,13.99-4.38s10.17,3.57,10.48,8.5c.56,8.88-12.52,11.26-17.67,18.51,23.78-15.08,48.56-28.59,74.13-40.4-3.26,10.58-10.18,21.49-15.12,31.41s-11.64,19.16-20.65,25.61c3.92-6.98,9.97-12.75,17.13-16.33,2.44-1.22,5.3-2.2,7.84-1.23,3.75,1.44,4.85,6.38,4.02,10.31s-2.98,7.52-3.59,11.49c-1.42-21.55,5.61-43.54,19.27-60.27,7.63,19.96,13.52,41.88,16.88,62.99-3.5-11.55-3.37-24.17.37-35.65,6.37,8.67,13.19,17,20.42,24.96-14.53-20.55-20.97-46.66-17.67-71.61,15.09,14.24,24.17,31.24,25.8,51.92-3.92-7.99-5.55-17.08-4.66-25.94,10.5,1.92,19.57,10.21,22.41,20.5-25.86-21.94-37.5-57.77-34.84-91.58,2.65-33.81,18.22-65.61,38.98-92.43,12.41-16.03,29.11-31.66,49.38-31.68,15.67-.02,29.6,9.33,42.43,18.32,13.47,9.43,26.94,18.87,40.41,28.3,16.84,11.8,33.81,23.7,47.95,38.63,14.13,14.93,25.41,33.3,28.52,53.63,3.11,20.33-2.96,42.67-18.51,56.12-3.31-5.92.27-14.27,6.61-16.68s14.04.83,17.51,6.66c3.47,5.83,2.93,13.55-.54,19.38-7.94-19.89-6.21-43.39,4.56-61.9,34.72,31.63,55.07,74.75,65.69,120.5-9.8-7.76-13.31-22.49-8.08-33.84,10.45,1.73,19.63,9.69,22.82,19.79-24.23-36.56-47.06-74.04-68.43-112.33,0,.28,1.25.34,1.25.62.62.06.14-.77-.27-.29s-1.33.27-1.49-.33c29.75,7.08,55.98,27.76,69.82,55.03-6.14-4.9-10.93-11.68-12.72-19.33-.45-1.92-.67-4.07.38-5.73,1.72-2.71,6.01-2.52,8.49-.49s3.64,5.22,4.77,8.22c1.14,3,2.52,6.15,5.23,7.87-8.82-15.97-18.91-33.08-35.86-39.82-11.89-4.73-27.03-4.41-34.71-14.64,12.94-4.43,27.98-5.77,40.55-.37-5.98,2.73-13.99-1.26-15.42-7.68-1.42-6.42,4.14-13.42,10.72-13.48-10.86,8.35-24.31,17.19-37.23,12.65-8.34-2.93-13.84-10.72-18.77-18.06-13.92-20.73-27.85-41.46-41.77-62.19,7.11.92,13.72,5.92,20.83,6.85,21.77,2.82,44.63,6.08,62.17,19.29,6.72,5.07,12.8,12.45,12.35,20.86-3.3-3.07-6.73-6.32-8.16-10.6s-.03-9.85,4.14-11.56c5.45-2.23,10.86,3.02,14.42,7.71-17.68-17.92-41.37-29.82-66.31-33.29,21.62-6.04,42.53-8.28,64.12-2.12-2.53-2.25-6.08-2.79-9.34-3.69s-6.76-2.63-7.74-5.87c-1.09-3.59,1.44-7.28,4.34-9.66s6.39-4.21,8.41-7.37c-6.77,6.63-15.81,10.56-25.06,12.65s-18.78,2.45-28.25,2.8c-3.67.14-7.45.26-10.87-1.07s-6.4-4.5-6.31-8.17c.43-17.33,12.21-35.66,20.98-50.61,1.36,8.1-7.33,15.46-15.5,14.63s-14.72-7.78-17.4-15.54-2.2-16.24-1.34-24.41c5.57,7.17,3.79,18.88-3.65,24.08s-19.05,2.83-23.86-4.87c8.48,5.42,17.28,11.15,22.36,19.84,5.08,8.69,5.06,21.25-2.79,27.56-6.08,4.89-14.66,4.67-22.45,4.22-13.43-.78-27-1.58-39.9-5.43s-25.23-11.08-32.66-22.3c-8.35-12.62-9.55-28.52-10.25-43.63-2.04-44.22-1.97-88.53.23-132.74-16.45.51-33.08,4.77-49.31,7.51Z"/>
</svg>