<?xml version="1.0" encoding="UTF-8"?>
<svg id="Layer_1" xmlns="http://www.w3.org/2000/svg" version="1.1" viewBox="0 0 125 125">
  <!-- Generator: Adobe Illustrator 29.8.2, SVG Export Plug-In . SVG Version: 2.1.1 Build 3)  -->
  <defs>
    <style>
      .st0 {
        fill: #ffc7c2;
      }

      .st1 {
        fill: #e2231a;
        fill-rule: evenodd;
      }
    </style>
  </defs>
  <path class="st0" d="M96.54,45.16c-2.95-2.33-6.51-7.09-6.51-17.27,0-14.22-10.18-21.04-18.83-24.13-3.86-1.34-7.85-2.25-11.9-2.71-1.81-.23-3.64-.36-5.47-.39-13.4,0-23.56,4.23-31.09,10.81-7.46,6.5-12.11,15.05-15.01,23.32-2.48,7.29-4.04,14.88-4.66,22.57-.26,3.06-.34,5.61-.36,7.42-.17,18.81,5.69,39.54,22.5,49.54,13.23,7.85,30.39,9.35,46.44,9.35,14.83,0,27.63-2.44,36.79-9.22,9.44-7,14.27-18.03,14.27-33.24,0-13.99-4.46-22.43-9.5-27.36-2-1.97-4.32-3.56-6.85-4.72-3.34-1.5-6.83-1.58-9.82-3.95Z"/>
  <path class="st1" d="M47.38,12.24c0-1.66.66-3.25,1.83-4.42,1.17-1.17,2.76-1.83,4.42-1.83s3.25.66,4.42,1.83c1.17,1.17,1.83,2.76,1.83,4.42v3.29c3.08,1.25,5.72,3.38,7.57,6.14,1.86,2.75,2.85,6,2.85,9.32v45.83h4.17c1.66,0,3.25.66,4.42,1.83,1.17,1.17,1.83,2.76,1.83,4.42s-.66,3.25-1.83,4.42-2.76,1.83-4.42,1.83h-41.67c-1.66,0-3.25-.66-4.42-1.83-1.17-1.17-1.83-2.76-1.83-4.42s.66-3.25,1.83-4.42,2.76-1.83,4.42-1.83h4.17V30.99c0-3.32.99-6.57,2.85-9.32,1.86-2.75,4.49-4.89,7.57-6.14v-3.29ZM45.29,76.82h16.67V30.99c0-2.21-.88-4.33-2.44-5.89s-3.68-2.44-5.89-2.44-4.33.88-5.89,2.44c-1.56,1.56-2.44,3.68-2.44,5.89v45.83Z"/>
</svg>