<svg width="78" height="78" viewBox="0 0 78 78" fill="none" xmlns="http://www.w3.org/2000/svg">
<path d="M46.1256 11.9613C43.2146 6.67957 35.6235 6.67957 32.7124 11.9613L6.96406 58.6164C4.14771 63.7226 7.83878 69.9766 13.6721 69.9766H65.1576C70.9881 69.9766 74.6848 63.7226 71.8656 58.6164L46.1256 11.9613ZM42.2034 56.0536C42.2034 56.7924 41.9099 57.5009 41.3874 58.0234C40.865 58.5458 40.1565 58.8393 39.4176 58.8393C38.6788 58.8393 37.9703 58.5458 37.4478 58.0234C36.9254 57.5009 36.6319 56.7924 36.6319 56.0536C36.6319 55.3148 36.9254 54.6062 37.4478 54.0838C37.9703 53.5613 38.6788 53.2679 39.4176 53.2679C40.1565 53.2679 40.865 53.5613 41.3874 54.0838C41.9099 54.6062 42.2034 55.3148 42.2034 56.0536ZM37.3284 47V28.8929C37.3284 28.3387 37.5485 27.8073 37.9403 27.4155C38.3321 27.0237 38.8635 26.8036 39.4176 26.8036C39.9717 26.8036 40.5032 27.0237 40.895 27.4155C41.2868 27.8073 41.5069 28.3387 41.5069 28.8929V47C41.5069 47.5541 41.2868 48.0855 40.895 48.4773C40.5032 48.8692 39.9717 49.0893 39.4176 49.0893C38.8635 49.0893 38.3321 48.8692 37.9403 48.4773C37.5485 48.0855 37.3284 47.5541 37.3284 47Z" fill="#AF2B2B"/>
</svg>
