<svg width="54" height="54" viewBox="0 0 54 54" fill="none" xmlns="http://www.w3.org/2000/svg">
<path d="M49.7891 0.414854C50.2574 0.102525 50.8195 -0.0377809 51.3797 0.0178373C51.9398 0.0734556 52.4634 0.321557 52.8611 0.719878C53.2589 1.1182 53.5062 1.6421 53.561 2.20233C53.6159 2.76256 53.4747 3.32446 53.1617 3.79232L52.8503 4.17192L30.2349 26.7825L52.8503 49.3979L53.1617 49.7775C53.4719 50.2454 53.6107 50.8062 53.5546 51.3648C53.4986 51.9234 53.2511 52.4454 52.8541 52.8424C52.4571 53.2394 51.9351 53.4869 51.3765 53.5429C50.8179 53.599 50.2571 53.4602 49.7891 53.1501L49.4095 52.8386L26.7941 30.2232L4.1836 52.8386C3.95913 53.071 3.69063 53.2564 3.39375 53.3839C3.09688 53.5114 2.77757 53.5786 2.45448 53.5814C2.13138 53.5842 1.81096 53.5226 1.51191 53.4003C1.21287 53.2779 0.94118 53.0972 0.712708 52.8687C0.484235 52.6403 0.303553 52.3686 0.181203 52.0695C0.0588524 51.7705 -0.00271575 51.4501 9.18739e-05 51.127C0.00289949 50.8039 0.0700261 50.4846 0.197555 50.1877C0.325083 49.8908 0.51046 49.6223 0.742868 49.3979L23.3534 26.7825L0.742868 4.17192L0.426535 3.79232C0.111308 3.32412 -0.0313508 2.76089 0.022987 2.19908C0.0773247 1.63727 0.325278 1.11182 0.724392 0.712711C1.12351 0.313597 1.64895 0.0656437 2.21076 0.011306C2.77257 -0.0430318 3.3358 0.0996267 3.804 0.414854L4.1836 0.731187L26.7941 23.3417L49.4095 0.731187L49.7891 0.414854Z" fill="black"/>
</svg>
