<svg width="61" height="87" viewBox="0 0 61 87" fill="none" xmlns="http://www.w3.org/2000/svg">
<g clip-path="url(#clip0_820_97)">
<path d="M20.7927 43.0869C23.9922 46.4691 27.2742 49.9181 30.5263 53.4281C20.6191 63.7484 11.9619 73.2812 5.34896 85.7325C2.61926 79.4006 0.809984 72.4951 0.440063 65.7605C0.888876 63.3576 10.6032 53.6881 20.7927 43.0869Z" fill="#852B07"/>
<path d="M42.2884 15.1376C35.1863 12.2087 25.3492 12.0214 18.4224 14.7646C13.5538 16.6905 10.1229 20.0637 10.0843 24.9453C10.0843 22.5766 10.0843 0.366636 30.5018 0.371094C51.0753 0.375552 51.2804 22.1724 51.2822 25.8279C51.184 20.8572 47.462 17.27 42.2901 15.1376H42.2884Z" fill="#8F1B07"/>
<path d="M51.2804 25.8281C51.3733 30.512 48.2457 36.4248 40.0741 43.5086C36.5906 40.0135 33.1561 36.5318 30.0845 33.2254C38.0773 24.4758 44.0591 17.2984 42.2884 15.1377C47.4603 17.2701 51.1822 20.8574 51.2804 25.8281Z" fill="#852B07"/>
<path d="M18.4399 14.7973C17.5458 18.5436 22.8071 25.3971 30.0845 33.2254C33.156 36.5317 36.5905 40.0135 40.0741 43.5086C47.8108 51.2759 55.779 59.1057 60.5512 65.2296C60.7861 65.5297 56.9274 78.8845 55.8316 85.7321C49.4325 74.5751 40.0951 63.7436 30.5263 53.4277C27.2741 49.9177 23.9922 46.4687 20.7927 43.0865C20.0949 42.3495 19.4006 41.6154 18.7116 40.8843C12.5142 34.4335 10.0509 29.1344 10.0843 24.9453C10.1228 20.0638 13.5538 16.6905 18.4224 14.7646L18.4399 14.7973Z" fill="#AD2B10"/>
<path d="M18.4399 14.7978C17.5458 18.544 22.8071 25.3975 30.0845 33.2258C33.156 36.5322 36.5905 40.0139 40.0741 43.509M40.0741 43.509C47.8108 51.2764 55.779 59.1061 60.5512 65.23C60.7861 65.5302 56.9274 78.885 55.8316 85.7325C49.4325 74.5755 40.0951 63.744 30.5263 53.4281C27.2741 49.9181 23.9922 46.4691 20.7927 43.087C20.0949 42.3499 19.4006 41.6158 18.7116 40.8847C12.5142 34.4339 10.0509 29.1348 10.0843 24.9457C10.1228 20.0642 13.5538 16.6909 18.4224 14.7651C25.3492 12.0219 35.1862 12.2091 42.2883 15.1381C47.4602 17.2705 51.1822 20.8577 51.2804 25.8284C51.3733 30.5123 48.2456 36.4252 40.0741 43.509Z" stroke="#780000" stroke-width="1.17435" stroke-miterlimit="10"/>
<path d="M20.7927 43.0869C10.6032 53.6881 0.888876 63.3576 0.440063 65.7605C0.809984 72.4951 2.61926 79.4006 5.34896 85.7325C11.9619 73.2812 20.6191 63.7484 30.5263 53.4281" stroke="#780000" stroke-width="1.17435" stroke-miterlimit="10"/>
<path d="M42.2709 15.1172C42.2761 15.1246 42.2814 15.1306 42.2884 15.138C44.0591 17.2987 38.0773 24.4761 30.0845 33.2257" stroke="#780000" stroke-width="1.17435" stroke-miterlimit="10"/>
<path d="M51.2822 25.9112V25.8279C51.2822 22.1724 51.0753 0.375552 30.5018 0.371094C10.0843 0.366636 10.0843 22.5766 10.0843 24.9453" stroke="#780000" stroke-width="1.17435" stroke-miterlimit="10"/>
</g>
<defs>
<clipPath id="clip0_820_97">
<rect width="61" height="87" fill="white"/>
</clipPath>
</defs>
</svg>
