<svg width="273" height="234" viewBox="0 0 273 234" fill="none" xmlns="http://www.w3.org/2000/svg">
<path d="M273 197H0V188H18.7397H273V197Z" fill="black"/>
<path d="M166 188H108V44H166V188Z" fill="#BF232D"/>
<path d="M238 188H180V20H238V188Z" fill="#BF232D"/>
<path d="M86 188H28V69H86V188Z" fill="#BF232D"/>
<path d="M133.482 8.08387C133.489 10.063 132.895 11.6441 131.702 12.8272C130.521 14.0101 129.065 14.8244 127.335 15.2703L127.336 15.3875C129.602 15.6658 131.336 16.3593 132.538 17.4679C133.753 18.5764 134.364 20.0616 134.371 21.9236C134.376 23.5772 133.978 25.0654 133.176 26.388C132.36 27.7238 131.107 28.7771 129.417 29.5481C127.727 30.3191 125.548 30.717 122.879 30.7419C119.767 30.7709 117.018 30.2822 114.631 29.2758L114.613 24.1391C115.839 24.7527 117.117 25.2161 118.446 25.5292C119.788 25.8292 121.045 25.9737 122.217 25.9628C124.378 25.9426 125.887 25.5575 126.744 24.8073C127.614 24.0439 128.046 22.9852 128.041 21.631C128.039 20.8498 127.841 20.181 127.448 19.6248C127.043 19.0687 126.338 18.6586 125.335 18.3945C124.331 18.1174 122.937 17.9871 121.154 18.0037L118.986 18.024L118.969 13.3951L121.176 13.3745C122.921 13.3582 124.261 13.1765 125.198 12.8292C126.121 12.482 126.744 12.0205 127.068 11.4445C127.404 10.8685 127.571 10.2093 127.569 9.46715C127.565 8.45154 127.243 7.66024 126.603 7.09328C125.976 6.52619 124.933 6.24945 123.475 6.26304C122.108 6.27579 120.918 6.52778 119.904 7.01901C118.903 7.51013 118.065 7.97368 117.389 8.40968L114.581 4.27559C115.698 3.45786 117.004 2.77509 118.5 2.22728C120.008 1.67935 121.804 1.39567 123.887 1.37625C126.83 1.34882 129.163 1.92605 130.886 3.10793C132.609 4.2768 133.474 5.93544 133.482 8.08387ZM147.462 1.56664L152.423 1.52039L152.524 30.0749L146.489 30.1312L146.431 13.6078C146.429 13.1651 146.434 12.6117 146.444 11.9475C146.455 11.2703 146.472 10.5735 146.496 9.85712C146.519 9.14074 146.543 8.49597 146.567 7.92281C146.437 8.0933 146.152 8.38893 145.711 8.80972C145.269 9.2175 144.86 9.5859 144.484 9.91494L141.232 12.582L138.289 8.97657L147.462 1.56664Z" fill="#BF232D"/>
<path d="M86.468 218V217.388L89.96 213.968C90.28 213.656 90.52 213.384 90.68 213.152C90.84 212.912 90.948 212.688 91.004 212.48C91.06 212.272 91.088 212.076 91.088 211.892C91.088 211.404 90.92 211.02 90.584 210.74C90.256 210.46 89.768 210.32 89.12 210.32C88.624 210.32 88.184 210.396 87.8 210.548C87.424 210.7 87.1 210.936 86.828 211.256L86.216 210.728C86.544 210.344 86.964 210.048 87.476 209.84C87.988 209.632 88.56 209.528 89.192 209.528C89.76 209.528 90.252 209.62 90.668 209.804C91.084 209.98 91.404 210.24 91.628 210.584C91.86 210.928 91.976 211.332 91.976 211.796C91.976 212.068 91.936 212.336 91.856 212.6C91.784 212.864 91.648 213.144 91.448 213.44C91.256 213.728 90.972 214.056 90.596 214.424L87.392 217.568L87.152 217.232H92.36V218H86.468ZM96.7689 218.072C96.1209 218.072 95.5449 217.904 95.0409 217.568C94.5369 217.224 94.1409 216.736 93.8529 216.104C93.5649 215.464 93.4209 214.696 93.4209 213.8C93.4209 212.904 93.5649 212.14 93.8529 211.508C94.1409 210.868 94.5369 210.38 95.0409 210.044C95.5449 209.7 96.1209 209.528 96.7689 209.528C97.4169 209.528 97.9929 209.7 98.4969 210.044C99.0009 210.38 99.3969 210.868 99.6849 211.508C99.9809 212.14 100.129 212.904 100.129 213.8C100.129 214.696 99.9809 215.464 99.6849 216.104C99.3969 216.736 99.0009 217.224 98.4969 217.568C97.9929 217.904 97.4169 218.072 96.7689 218.072ZM96.7689 217.28C97.2649 217.28 97.6969 217.148 98.0649 216.884C98.4329 216.612 98.7209 216.22 98.9289 215.708C99.1369 215.188 99.2409 214.552 99.2409 213.8C99.2409 213.048 99.1369 212.416 98.9289 211.904C98.7209 211.384 98.4329 210.992 98.0649 210.728C97.6969 210.456 97.2649 210.32 96.7689 210.32C96.2889 210.32 95.8609 210.456 95.4849 210.728C95.1089 210.992 94.8169 211.384 94.6089 211.904C94.4009 212.416 94.2969 213.048 94.2969 213.8C94.2969 214.552 94.4009 215.188 94.6089 215.708C94.8169 216.22 95.1089 216.612 95.4849 216.884C95.8609 217.148 96.2889 217.28 96.7689 217.28ZM101.21 218V217.388L104.702 213.968C105.022 213.656 105.262 213.384 105.422 213.152C105.582 212.912 105.69 212.688 105.746 212.48C105.802 212.272 105.83 212.076 105.83 211.892C105.83 211.404 105.662 211.02 105.326 210.74C104.998 210.46 104.51 210.32 103.862 210.32C103.366 210.32 102.926 210.396 102.542 210.548C102.166 210.7 101.842 210.936 101.57 211.256L100.958 210.728C101.286 210.344 101.706 210.048 102.218 209.84C102.73 209.632 103.302 209.528 103.934 209.528C104.502 209.528 104.994 209.62 105.41 209.804C105.826 209.98 106.146 210.24 106.37 210.584C106.602 210.928 106.718 211.332 106.718 211.796C106.718 212.068 106.678 212.336 106.598 212.6C106.526 212.864 106.39 213.144 106.19 213.44C105.998 213.728 105.714 214.056 105.338 214.424L102.134 217.568L101.894 217.232H107.102V218H101.21ZM109.651 218V209.96L110.035 210.368H107.671V209.6H110.515V218H109.651ZM113.17 212.948C112.994 212.948 112.842 212.884 112.714 212.756C112.594 212.628 112.534 212.472 112.534 212.288C112.534 212.096 112.594 211.94 112.714 211.82C112.842 211.7 112.994 211.64 113.17 211.64C113.346 211.64 113.494 211.7 113.614 211.82C113.742 211.94 113.806 212.096 113.806 212.288C113.806 212.472 113.742 212.628 113.614 212.756C113.494 212.884 113.346 212.948 113.17 212.948ZM113.17 218.06C112.994 218.06 112.842 217.996 112.714 217.868C112.594 217.74 112.534 217.584 112.534 217.4C112.534 217.208 112.594 217.052 112.714 216.932C112.842 216.812 112.994 216.752 113.17 216.752C113.346 216.752 113.494 216.812 113.614 216.932C113.742 217.052 113.806 217.208 113.806 217.4C113.806 217.584 113.742 217.74 113.614 217.868C113.494 217.996 113.346 218.06 113.17 218.06ZM120.714 218.072C120.106 218.072 119.53 217.976 118.986 217.784C118.45 217.584 118.018 217.32 117.69 216.992L118.11 216.308C118.382 216.588 118.746 216.82 119.202 217.004C119.666 217.188 120.17 217.28 120.714 217.28C121.41 217.28 121.942 217.128 122.31 216.824C122.686 216.52 122.874 216.112 122.874 215.6C122.874 215.088 122.69 214.68 122.322 214.376C121.962 214.072 121.39 213.92 120.606 213.92H120.006V213.284L122.598 210.032L122.718 210.368H118.038V209.6H123.438V210.212L120.846 213.464L120.426 213.188H120.75C121.758 213.188 122.51 213.412 123.006 213.86C123.51 214.308 123.762 214.884 123.762 215.588C123.762 216.06 123.65 216.484 123.426 216.86C123.202 217.236 122.862 217.532 122.406 217.748C121.958 217.964 121.394 218.072 120.714 218.072ZM126.443 218V209.96L126.827 210.368H124.463V209.6H127.307V218H126.443ZM135.528 218.06C134.928 218.06 134.388 217.924 133.908 217.652C133.436 217.38 133.064 217.004 132.792 216.524C132.52 216.036 132.384 215.476 132.384 214.844C132.384 214.204 132.52 213.644 132.792 213.164C133.064 212.684 133.436 212.312 133.908 212.048C134.388 211.776 134.928 211.64 135.528 211.64C136.08 211.64 136.572 211.764 137.004 212.012C137.444 212.26 137.792 212.624 138.048 213.104C138.312 213.576 138.444 214.156 138.444 214.844C138.444 215.524 138.316 216.104 138.06 216.584C137.804 217.064 137.456 217.432 137.016 217.688C136.584 217.936 136.088 218.06 135.528 218.06ZM135.588 217.304C136.036 217.304 136.436 217.204 136.788 217.004C137.148 216.796 137.428 216.508 137.628 216.14C137.836 215.764 137.94 215.332 137.94 214.844C137.94 214.348 137.836 213.916 137.628 213.548C137.428 213.18 137.148 212.896 136.788 212.696C136.436 212.488 136.036 212.384 135.588 212.384C135.148 212.384 134.752 212.488 134.4 212.696C134.048 212.896 133.768 213.18 133.56 213.548C133.352 213.916 133.248 214.348 133.248 214.844C133.248 215.332 133.352 215.764 133.56 216.14C133.768 216.508 134.048 216.796 134.4 217.004C134.752 217.204 135.148 217.304 135.588 217.304ZM137.964 218V216.104L138.048 214.832L137.928 213.56V209.096H138.78V218H137.964ZM143.721 218.06C143.113 218.06 142.565 217.924 142.077 217.652C141.597 217.372 141.217 216.992 140.937 216.512C140.657 216.024 140.517 215.468 140.517 214.844C140.517 214.212 140.657 213.656 140.937 213.176C141.217 212.696 141.597 212.32 142.077 212.048C142.557 211.776 143.105 211.64 143.721 211.64C144.345 211.64 144.897 211.776 145.377 212.048C145.865 212.32 146.245 212.696 146.517 213.176C146.797 213.656 146.937 214.212 146.937 214.844C146.937 215.468 146.797 216.024 146.517 216.512C146.245 216.992 145.865 217.372 145.377 217.652C144.889 217.924 144.337 218.06 143.721 218.06ZM143.721 217.304C144.177 217.304 144.581 217.204 144.933 217.004C145.285 216.796 145.561 216.508 145.761 216.14C145.969 215.764 146.073 215.332 146.073 214.844C146.073 214.348 145.969 213.916 145.761 213.548C145.561 213.18 145.285 212.896 144.933 212.696C144.581 212.488 144.181 212.384 143.733 212.384C143.285 212.384 142.885 212.488 142.533 212.696C142.181 212.896 141.901 213.18 141.693 213.548C141.485 213.916 141.381 214.348 141.381 214.844C141.381 215.332 141.485 215.764 141.693 216.14C141.901 216.508 142.181 216.796 142.533 217.004C142.885 217.204 143.281 217.304 143.721 217.304ZM140.769 218.852L146.085 210.872H146.649L141.345 218.852H140.769ZM151.184 218.06C150.584 218.06 150.044 217.924 149.564 217.652C149.092 217.38 148.72 217.004 148.448 216.524C148.176 216.036 148.04 215.476 148.04 214.844C148.04 214.204 148.176 213.644 148.448 213.164C148.72 212.684 149.092 212.312 149.564 212.048C150.044 211.776 150.584 211.64 151.184 211.64C151.736 211.64 152.228 211.764 152.66 212.012C153.1 212.26 153.448 212.624 153.704 213.104C153.968 213.576 154.1 214.156 154.1 214.844C154.1 215.524 153.972 216.104 153.716 216.584C153.46 217.064 153.112 217.432 152.672 217.688C152.24 217.936 151.744 218.06 151.184 218.06ZM151.244 217.304C151.692 217.304 152.092 217.204 152.444 217.004C152.804 216.796 153.084 216.508 153.284 216.14C153.492 215.764 153.596 215.332 153.596 214.844C153.596 214.348 153.492 213.916 153.284 213.548C153.084 213.18 152.804 212.896 152.444 212.696C152.092 212.488 151.692 212.384 151.244 212.384C150.804 212.384 150.408 212.488 150.056 212.696C149.704 212.896 149.424 213.18 149.216 213.548C149.008 213.916 148.904 214.348 148.904 214.844C148.904 215.332 149.008 215.764 149.216 216.14C149.424 216.508 149.704 216.796 150.056 217.004C150.408 217.204 150.804 217.304 151.244 217.304ZM153.62 218V216.104L153.704 214.832L153.584 213.56V209.096H154.436V218H153.62ZM159.485 218.06C158.829 218.06 158.253 217.924 157.757 217.652C157.261 217.372 156.873 216.992 156.593 216.512C156.313 216.024 156.173 215.468 156.173 214.844C156.173 214.22 156.305 213.668 156.569 213.188C156.841 212.708 157.209 212.332 157.673 212.06C158.145 211.78 158.673 211.64 159.257 211.64C159.849 211.64 160.373 211.776 160.829 212.048C161.293 212.312 161.657 212.688 161.921 213.176C162.185 213.656 162.317 214.212 162.317 214.844C162.317 214.884 162.313 214.928 162.305 214.976C162.305 215.016 162.305 215.06 162.305 215.108H156.821V214.472H161.849L161.513 214.724C161.513 214.268 161.413 213.864 161.213 213.512C161.021 213.152 160.757 212.872 160.421 212.672C160.085 212.472 159.697 212.372 159.257 212.372C158.825 212.372 158.437 212.472 158.093 212.672C157.749 212.872 157.481 213.152 157.289 213.512C157.097 213.872 157.001 214.284 157.001 214.748V214.88C157.001 215.36 157.105 215.784 157.313 216.152C157.529 216.512 157.825 216.796 158.201 217.004C158.585 217.204 159.021 217.304 159.509 217.304C159.893 217.304 160.249 217.236 160.577 217.1C160.913 216.964 161.201 216.756 161.441 216.476L161.921 217.028C161.641 217.364 161.289 217.62 160.865 217.796C160.449 217.972 159.989 218.06 159.485 218.06ZM171.14 218V216.608L171.104 216.38V214.052C171.104 213.516 170.952 213.104 170.648 212.816C170.352 212.528 169.908 212.384 169.316 212.384C168.908 212.384 168.52 212.452 168.152 212.588C167.784 212.724 167.472 212.904 167.216 213.128L166.832 212.492C167.152 212.22 167.536 212.012 167.984 211.868C168.432 211.716 168.904 211.64 169.4 211.64C170.216 211.64 170.844 211.844 171.284 212.252C171.732 212.652 171.956 213.264 171.956 214.088V218H171.14ZM168.968 218.06C168.496 218.06 168.084 217.984 167.732 217.832C167.388 217.672 167.124 217.456 166.94 217.184C166.756 216.904 166.664 216.584 166.664 216.224C166.664 215.896 166.74 215.6 166.892 215.336C167.052 215.064 167.308 214.848 167.66 214.688C168.02 214.52 168.5 214.436 169.1 214.436H171.272V215.072H169.124C168.516 215.072 168.092 215.18 167.852 215.396C167.62 215.612 167.504 215.88 167.504 216.2C167.504 216.56 167.644 216.848 167.924 217.064C168.204 217.28 168.596 217.388 169.1 217.388C169.58 217.388 169.992 217.28 170.336 217.064C170.688 216.84 170.944 216.52 171.104 216.104L171.296 216.692C171.136 217.108 170.856 217.44 170.456 217.688C170.064 217.936 169.568 218.06 168.968 218.06ZM174.414 218V210.908C174.414 210.348 174.578 209.896 174.906 209.552C175.234 209.208 175.706 209.036 176.322 209.036C176.562 209.036 176.794 209.068 177.018 209.132C177.242 209.196 177.43 209.296 177.582 209.432L177.294 210.068C177.174 209.964 177.034 209.888 176.874 209.84C176.714 209.784 176.542 209.756 176.358 209.756C175.998 209.756 175.722 209.856 175.53 210.056C175.338 210.256 175.242 210.552 175.242 210.944V211.904L175.266 212.3V218H174.414ZM173.286 212.408V211.7H177.186V212.408H173.286ZM86.024 233L89.864 224.6H90.74L94.58 233H93.644L90.116 225.116H90.476L86.948 233H86.024ZM87.536 230.756L87.8 230.036H92.684L92.948 230.756H87.536ZM95.9696 233V224.6H96.8576V233H95.9696ZM99.5907 233V224.6H103.011C103.907 224.6 104.691 224.78 105.363 225.14C106.043 225.492 106.571 225.984 106.947 226.616C107.323 227.248 107.511 227.976 107.511 228.8C107.511 229.624 107.323 230.352 106.947 230.984C106.571 231.616 106.043 232.112 105.363 232.472C104.691 232.824 103.907 233 103.011 233H99.5907ZM100.479 232.232H102.963C103.707 232.232 104.351 232.088 104.895 231.8C105.447 231.504 105.875 231.1 106.179 230.588C106.483 230.068 106.635 229.472 106.635 228.8C106.635 228.12 106.483 227.524 106.179 227.012C105.875 226.5 105.447 226.1 104.895 225.812C104.351 225.516 103.707 225.368 102.963 225.368H100.479V232.232ZM111.821 233.072C111.197 233.072 110.597 232.972 110.021 232.772C109.453 232.564 109.013 232.3 108.701 231.98L109.049 231.296C109.345 231.584 109.741 231.828 110.237 232.028C110.741 232.22 111.269 232.316 111.821 232.316C112.349 232.316 112.777 232.252 113.105 232.124C113.441 231.988 113.685 231.808 113.837 231.584C113.997 231.36 114.077 231.112 114.077 230.84C114.077 230.512 113.981 230.248 113.789 230.048C113.605 229.848 113.361 229.692 113.057 229.58C112.753 229.46 112.417 229.356 112.049 229.268C111.681 229.18 111.313 229.088 110.945 228.992C110.577 228.888 110.237 228.752 109.925 228.584C109.621 228.416 109.373 228.196 109.181 227.924C108.997 227.644 108.905 227.28 108.905 226.832C108.905 226.416 109.013 226.036 109.229 225.692C109.453 225.34 109.793 225.06 110.249 224.852C110.705 224.636 111.289 224.528 112.001 224.528C112.473 224.528 112.941 224.596 113.405 224.732C113.869 224.86 114.269 225.04 114.605 225.272L114.305 225.98C113.945 225.74 113.561 225.564 113.153 225.452C112.753 225.34 112.365 225.284 111.989 225.284C111.485 225.284 111.069 225.352 110.741 225.488C110.413 225.624 110.169 225.808 110.009 226.04C109.857 226.264 109.781 226.52 109.781 226.808C109.781 227.136 109.873 227.4 110.057 227.6C110.249 227.8 110.497 227.956 110.801 228.068C111.113 228.18 111.453 228.28 111.821 228.368C112.189 228.456 112.553 228.552 112.913 228.656C113.281 228.76 113.617 228.896 113.921 229.064C114.233 229.224 114.481 229.44 114.665 229.712C114.857 229.984 114.953 230.34 114.953 230.78C114.953 231.188 114.841 231.568 114.617 231.92C114.393 232.264 114.049 232.544 113.585 232.76C113.129 232.968 112.541 233.072 111.821 233.072ZM119.848 233V226.7H120.7V233H119.848ZM120.28 225.308C120.104 225.308 119.956 225.248 119.836 225.128C119.716 225.008 119.656 224.864 119.656 224.696C119.656 224.528 119.716 224.388 119.836 224.276C119.956 224.156 120.104 224.096 120.28 224.096C120.456 224.096 120.604 224.152 120.724 224.264C120.844 224.376 120.904 224.516 120.904 224.684C120.904 224.86 120.844 225.008 120.724 225.128C120.612 225.248 120.464 225.308 120.28 225.308ZM126.391 233V224.6H129.811C130.707 224.6 131.491 224.78 132.163 225.14C132.843 225.492 133.371 225.984 133.747 226.616C134.123 227.248 134.311 227.976 134.311 228.8C134.311 229.624 134.123 230.352 133.747 230.984C133.371 231.616 132.843 232.112 132.163 232.472C131.491 232.824 130.707 233 129.811 233H126.391ZM127.279 232.232H129.763C130.507 232.232 131.151 232.088 131.695 231.8C132.247 231.504 132.675 231.1 132.979 230.588C133.283 230.068 133.435 229.472 133.435 228.8C133.435 228.12 133.283 227.524 132.979 227.012C132.675 226.5 132.247 226.1 131.695 225.812C131.151 225.516 130.507 225.368 129.763 225.368H127.279V232.232ZM140.074 233V231.608L140.038 231.38V229.052C140.038 228.516 139.886 228.104 139.582 227.816C139.286 227.528 138.842 227.384 138.25 227.384C137.842 227.384 137.454 227.452 137.086 227.588C136.718 227.724 136.406 227.904 136.15 228.128L135.766 227.492C136.086 227.22 136.47 227.012 136.918 226.868C137.366 226.716 137.838 226.64 138.334 226.64C139.15 226.64 139.778 226.844 140.218 227.252C140.666 227.652 140.89 228.264 140.89 229.088V233H140.074ZM137.902 233.06C137.43 233.06 137.018 232.984 136.666 232.832C136.322 232.672 136.058 232.456 135.874 232.184C135.69 231.904 135.598 231.584 135.598 231.224C135.598 230.896 135.674 230.6 135.826 230.336C135.986 230.064 136.242 229.848 136.594 229.688C136.954 229.52 137.434 229.436 138.034 229.436H140.206V230.072H138.058C137.45 230.072 137.026 230.18 136.786 230.396C136.554 230.612 136.438 230.88 136.438 231.2C136.438 231.56 136.578 231.848 136.858 232.064C137.138 232.28 137.53 232.388 138.034 232.388C138.514 232.388 138.926 232.28 139.27 232.064C139.622 231.84 139.878 231.52 140.038 231.104L140.23 231.692C140.07 232.108 139.79 232.44 139.39 232.688C138.998 232.936 138.502 233.06 137.902 233.06ZM146.42 226.64C146.932 226.64 147.38 226.74 147.764 226.94C148.156 227.132 148.46 227.428 148.676 227.828C148.9 228.228 149.012 228.732 149.012 229.34V233H148.16V229.424C148.16 228.76 147.992 228.26 147.656 227.924C147.328 227.58 146.864 227.408 146.264 227.408C145.816 227.408 145.424 227.5 145.088 227.684C144.76 227.86 144.504 228.12 144.32 228.464C144.144 228.8 144.056 229.208 144.056 229.688V233H143.204V226.7H144.02V228.428L143.888 228.104C144.088 227.648 144.408 227.292 144.848 227.036C145.288 226.772 145.812 226.64 146.42 226.64ZM159.185 226.64C159.697 226.64 160.141 226.74 160.517 226.94C160.901 227.132 161.197 227.428 161.405 227.828C161.621 228.228 161.729 228.732 161.729 229.34V233H160.877V229.424C160.877 228.76 160.717 228.26 160.397 227.924C160.085 227.58 159.641 227.408 159.065 227.408C158.633 227.408 158.257 227.5 157.937 227.684C157.625 227.86 157.381 228.12 157.205 228.464C157.037 228.8 156.953 229.208 156.953 229.688V233H156.101V229.424C156.101 228.76 155.941 228.26 155.621 227.924C155.301 227.58 154.853 227.408 154.277 227.408C153.853 227.408 153.481 227.5 153.161 227.684C152.841 227.86 152.593 228.12 152.417 228.464C152.249 228.8 152.165 229.208 152.165 229.688V233H151.313V226.7H152.129V228.404L151.997 228.104C152.189 227.648 152.497 227.292 152.921 227.036C153.353 226.772 153.861 226.64 154.445 226.64C155.061 226.64 155.585 226.796 156.017 227.108C156.449 227.412 156.729 227.872 156.857 228.488L156.521 228.356C156.705 227.844 157.029 227.432 157.493 227.12C157.965 226.8 158.529 226.64 159.185 226.64ZM167.988 233V231.608L167.952 231.38V229.052C167.952 228.516 167.8 228.104 167.496 227.816C167.2 227.528 166.756 227.384 166.164 227.384C165.756 227.384 165.368 227.452 165 227.588C164.632 227.724 164.32 227.904 164.064 228.128L163.68 227.492C164 227.22 164.384 227.012 164.832 226.868C165.28 226.716 165.752 226.64 166.248 226.64C167.064 226.64 167.692 226.844 168.132 227.252C168.58 227.652 168.804 228.264 168.804 229.088V233H167.988ZM165.816 233.06C165.344 233.06 164.932 232.984 164.58 232.832C164.236 232.672 163.972 232.456 163.788 232.184C163.604 231.904 163.512 231.584 163.512 231.224C163.512 230.896 163.588 230.6 163.74 230.336C163.9 230.064 164.156 229.848 164.508 229.688C164.868 229.52 165.348 229.436 165.948 229.436H168.12V230.072H165.972C165.364 230.072 164.94 230.18 164.7 230.396C164.468 230.612 164.352 230.88 164.352 231.2C164.352 231.56 164.492 231.848 164.772 232.064C165.052 232.28 165.444 232.388 165.948 232.388C166.428 232.388 166.84 232.28 167.184 232.064C167.536 231.84 167.792 231.52 167.952 231.104L168.144 231.692C167.984 232.108 167.704 232.44 167.304 232.688C166.912 232.936 166.416 233.06 165.816 233.06ZM171.118 233V226.7H171.934V228.416L171.85 228.116C172.026 227.636 172.322 227.272 172.738 227.024C173.154 226.768 173.67 226.64 174.286 226.64V227.468C174.254 227.468 174.222 227.468 174.19 227.468C174.158 227.46 174.126 227.456 174.094 227.456C173.43 227.456 172.91 227.66 172.534 228.068C172.158 228.468 171.97 229.04 171.97 229.784V233H171.118ZM176.512 231.368L176.536 230.276L180.46 226.7H181.504L178.732 229.352L178.252 229.76L176.512 231.368ZM175.84 233V224.096H176.692V233H175.84ZM180.724 233L178.096 229.724L178.648 229.064L181.768 233H180.724Z" fill="black"/>
<g clip-path="url(#clip0_330_40)">
<path d="M131.753 126.725C133.716 128.979 135.729 131.279 137.724 133.619C131.647 140.499 126.337 146.854 122.281 155.155C120.607 150.934 119.497 146.33 119.27 141.84C119.545 140.238 125.504 133.792 131.753 126.725Z" fill="black"/>
<path d="M144.938 108.092C140.582 106.14 134.548 106.015 130.3 107.844C127.313 109.128 125.209 111.376 125.185 114.631C125.185 113.052 125.185 98.2451 137.709 98.248C150.328 98.251 150.453 112.782 150.454 115.219C150.394 111.905 148.111 109.514 144.939 108.092H144.938Z" fill="black"/>
<path d="M150.453 115.22C150.51 118.342 148.592 122.284 143.58 127.007C141.443 124.677 139.337 122.356 137.453 120.151C142.355 114.318 146.024 109.533 144.938 108.093C148.11 109.514 150.393 111.906 150.453 115.22Z" fill="black"/>
<path d="M130.31 107.866C129.762 110.363 132.989 114.932 137.453 120.151C139.337 122.355 141.443 124.676 143.58 127.006C148.325 132.185 153.213 137.404 156.14 141.487C156.284 141.687 153.917 150.59 153.245 155.155C149.32 147.717 143.593 140.496 137.724 133.619C135.729 131.279 133.716 128.98 131.753 126.725C131.325 126.234 130.9 125.744 130.477 125.257C126.676 120.956 125.165 117.424 125.185 114.631C125.209 111.376 127.313 109.128 130.3 107.844L130.31 107.866Z" fill="black"/>
<path d="M130.31 107.866C129.762 110.363 132.989 114.932 137.453 120.151C139.337 122.355 141.443 124.677 143.58 127.007M143.58 127.007C148.325 132.185 153.213 137.405 156.14 141.487C156.284 141.687 153.917 150.591 153.245 155.156C149.32 147.718 143.593 140.497 137.724 133.619C135.729 131.279 133.716 128.98 131.753 126.725C131.325 126.234 130.9 125.745 130.477 125.257C126.676 120.957 125.165 117.424 125.185 114.631C125.209 111.377 127.313 109.128 130.3 107.844C134.548 106.015 140.582 106.14 144.938 108.093C148.11 109.514 150.393 111.906 150.453 115.22C150.51 118.342 148.592 122.284 143.58 127.007Z" stroke="#780000" stroke-width="1.17435" stroke-miterlimit="10"/>
<path d="M131.753 126.725C125.504 133.792 119.545 140.238 119.27 141.84C119.497 146.33 120.607 150.934 122.281 155.155C126.337 146.854 131.647 140.499 137.724 133.619" stroke="#780000" stroke-width="1.17435" stroke-miterlimit="10"/>
<path d="M144.927 108.078C144.93 108.083 144.934 108.087 144.938 108.092C146.024 109.532 142.355 114.317 137.453 120.15" stroke="#780000" stroke-width="1.17435" stroke-miterlimit="10"/>
<path d="M150.454 115.275V115.219C150.454 112.782 150.328 98.251 137.709 98.248C125.185 98.2451 125.185 113.052 125.185 114.631" stroke="#780000" stroke-width="1.17435" stroke-miterlimit="10"/>
</g>
<defs>
<clipPath id="clip0_330_40">
<rect width="37.415" height="58" fill="white" transform="translate(119 98)"/>
</clipPath>
</defs>
</svg>
