<svg width="60" height="60" viewBox="0 0 60 60" fill="none" xmlns="http://www.w3.org/2000/svg">
<path fill-rule="evenodd" clip-rule="evenodd" d="M58.9286 21.1762C58.83 14.3962 54.9857 7.71902 49.0843 4.96759C45.9125 3.48528 42.2939 3.27215 38.97 4.37188C35.9486 5.33188 32.9186 7.29902 30 10.3933C27.0814 7.29902 24.0514 5.33616 21.03 4.37188C17.7061 3.27215 14.0875 3.48528 10.9157 4.96759C5.01427 7.71902 1.16998 14.3962 1.07141 21.1762V21.2104C1.07141 31.0976 6.95141 39.8576 13.1828 46.0076C16.0115 48.8193 19.1502 51.3009 22.5386 53.4047C23.9871 54.2833 25.3543 54.9904 26.5671 55.4876C27.7286 55.959 28.9371 56.319 30 56.319C31.0628 56.319 32.2714 55.959 33.4286 55.4876C34.6457 54.9947 36.0128 54.2876 37.4571 53.4047C40.847 51.3012 43.9871 48.8195 46.8171 46.0076C53.0485 39.8576 58.9286 31.0976 58.9286 21.2147V21.1762ZM18.6943 31.7576C18.6943 30.279 19.8943 29.079 21.3728 29.079H27.3214V23.1304C27.3214 22.42 27.6036 21.7387 28.1059 21.2364C28.6083 20.7341 29.2896 20.4519 30 20.4519C30.7104 20.4519 31.3917 20.7341 31.894 21.2364C32.3963 21.7387 32.6786 22.42 32.6786 23.1304V29.079H38.6271C39.3375 29.079 40.0188 29.3612 40.5212 29.8636C41.0235 30.3659 41.3057 31.0472 41.3057 31.7576C41.3057 32.468 41.0235 33.1493 40.5212 33.6516C40.0188 34.154 39.3375 34.4362 38.6271 34.4362H32.6786V40.3804C32.6786 41.0909 32.3963 41.7722 31.894 42.2745C31.3917 42.7768 30.7104 43.059 30 43.059C29.2896 43.059 28.6083 42.7768 28.1059 42.2745C27.6036 41.7722 27.3214 41.0909 27.3214 40.3804V34.4362H21.3728C20.6624 34.4362 19.9811 34.154 19.4788 33.6516C18.9765 33.1493 18.6943 32.468 18.6943 31.7576Z" fill="#BF232D"/>
</svg>
