<svg width="60" height="60" viewBox="0 0 60 60" fill="none" xmlns="http://www.w3.org/2000/svg">
<path d="M42.5 12.5V17.5C44.4891 17.5 46.3968 18.2902 47.8033 19.6967C49.2098 21.1032 50 23.0109 50 25V52.5C50 53.163 49.7366 53.7989 49.2678 54.2678C48.7989 54.7366 48.163 55 47.5 55H12.5C11.837 55 11.2011 54.7366 10.7322 54.2678C10.2634 53.7989 10 53.163 10 52.5V25C10 23.0109 10.7902 21.1032 12.1967 19.6967C13.6032 18.2902 15.5109 17.5 17.5 17.5V12.5H42.5ZM32.5 27.5H27.5V32.5H22.5V37.5H27.4975L27.5 42.5H32.5L32.4975 37.5H37.5V32.5H32.5V27.5ZM47.5 5V10H12.5V5H47.5Z" fill="#205738"/>
</svg>
