<svg width="60" height="60" viewBox="0 0 60 60" fill="none" xmlns="http://www.w3.org/2000/svg">
<path d="M35.16 8.93972C32.9207 4.87686 27.0814 4.87686 24.8421 8.93972L5.03572 44.8283C2.86929 48.7561 5.70857 53.5669 10.1957 53.5669H49.8C54.285 53.5669 57.1286 48.7561 54.96 44.8283L35.16 8.93972ZM32.1429 42.8569C32.1429 43.4252 31.9171 43.9702 31.5152 44.3721C31.1134 44.774 30.5683 44.9997 30 44.9997C29.4317 44.9997 28.8866 44.774 28.4848 44.3721C28.0829 43.9702 27.8571 43.4252 27.8571 42.8569C27.8571 42.2885 28.0829 41.7435 28.4848 41.3416C28.8866 40.9398 29.4317 40.714 30 40.714C30.5683 40.714 31.1134 40.9398 31.5152 41.3416C31.9171 41.7435 32.1429 42.2885 32.1429 42.8569ZM28.3929 35.8926V21.964C28.3929 21.5378 28.5622 21.129 28.8636 20.8276C29.165 20.5262 29.5738 20.3569 30 20.3569C30.4262 20.3569 30.835 20.5262 31.1364 20.8276C31.4378 21.129 31.6071 21.5378 31.6071 21.964V35.8926C31.6071 36.3188 31.4378 36.7276 31.1364 37.029C30.835 37.3304 30.4262 37.4997 30 37.4997C29.5738 37.4997 29.165 37.3304 28.8636 37.029C28.5622 36.7276 28.3929 36.3188 28.3929 35.8926Z" fill="#BF232D"/>
</svg>
