<svg width="25" height="30" viewBox="0 0 25 30" fill="none" xmlns="http://www.w3.org/2000/svg">
<ellipse cx="12.3934" cy="14.723" rx="12.3794" ry="14.7107" transform="rotate(179.945 12.3934 14.723)" fill="white"/>
<path fill-rule="evenodd" clip-rule="evenodd" d="M16.5962 14.9627L14.9805 13.0465C14.9201 12.9797 14.8716 12.8991 14.8379 12.8096C14.8043 12.7201 14.7861 12.6234 14.7846 12.5254C14.783 12.4273 14.7981 12.3299 14.8289 12.239C14.8597 12.1481 14.9056 12.0654 14.9639 11.996C15.0222 11.9267 15.0916 11.8719 15.1681 11.8351C15.2446 11.7983 15.3265 11.7802 15.409 11.7819C15.4915 11.7835 15.5729 11.8049 15.6483 11.8447C15.7237 11.8846 15.7916 11.942 15.8479 12.0137L18.5134 15.1751L18.9481 15.6906L18.5144 16.207L15.8549 19.3734C15.7386 19.5025 15.5846 19.5728 15.4254 19.5697C15.2662 19.5665 15.1143 19.49 15.0016 19.3563C14.8889 19.2227 14.8242 19.0423 14.8213 18.8531C14.8183 18.664 14.8772 18.4808 14.9856 18.3423L16.5976 16.423L8.5037 16.4307C7.79757 16.4314 7.12004 16.0987 6.62017 15.5058C6.12029 14.913 5.83901 14.1085 5.83821 13.2694C5.83741 12.4303 6.11715 11.6252 6.6159 11.0314C7.11464 10.4376 7.79153 10.1036 8.49766 10.1029L10.1361 10.1014C10.2991 10.1012 10.4554 10.178 10.5708 10.3148C10.6861 10.4516 10.751 10.6373 10.7512 10.8309C10.7514 11.0246 10.6868 11.2103 10.5718 11.3474C10.4567 11.4844 10.3005 11.5615 10.1375 11.5616L8.49906 11.5632C8.11883 11.5636 7.75435 11.7434 7.4858 12.0631C7.21724 12.3829 7.06661 12.8164 7.06705 13.2682C7.06748 13.72 7.21893 14.1532 7.4881 14.4724C7.75726 14.7917 8.12209 14.9708 8.50231 14.9705L16.5962 14.9627Z" fill="black"/>
</svg>
